<?xml version="1.0" encoding="UTF-8"?>
<svg xmlns="http://www.w3.org/2000/svg" width="167" height="30" viewBox="0 0 167 30" fill="none">
  <path fill-rule="evenodd" clip-rule="evenodd" d="M3.2627 15L35.7627 1.5L26.7627 28.5L3.2627 15ZM146.122 2.07996V28H150.73V18.784C150.73 17.152 151.15 15.88 151.99 14.968C152.854 14.056 153.934 13.6 155.23 13.6C156.55 13.6 157.51 14.008 158.11 14.824C158.734 15.64 159.046 16.816 159.046 18.352V28H163.618V17.92C163.618 15.232 163.006 13.192 161.782 11.8C160.582 10.408 158.878 9.71196 156.67 9.71196C155.35 9.71196 154.174 9.99996 153.142 10.576C152.134 11.128 151.33 11.896 150.73 12.88V2.07996H146.122ZM49.3066 2.79996L40.0906 28H44.9146L46.9666 22.168H56.7946L58.8106 28H63.7066L54.4906 2.79996H49.3066ZM55.5346 18.568H48.2266L51.8626 8.09196L55.5346 18.568ZM66.8448 10.144V28H71.4528V18.784C71.4528 17.152 71.8608 15.88 72.6768 14.968C73.5168 14.056 74.5848 13.6 75.8808 13.6C77.2008 13.6 78.1728 14.008 78.7968 14.824C79.4208 15.64 79.7328 16.816 79.7328 18.352V28H84.3408V17.92C84.3408 15.232 83.7288 13.192 82.5048 11.8C81.2808 10.408 79.5648 9.71196 77.3568 9.71196C75.9408 9.71196 74.7048 10.024 73.6488 10.648C72.6168 11.272 71.8248 12.112 71.2728 13.168L70.9128 10.144H66.8448ZM97.3151 28.432C95.5871 28.432 94.0271 28.036 92.6351 27.244C91.2671 26.452 90.1751 25.36 89.3591 23.968C88.5671 22.552 88.1711 20.92 88.1711 19.072C88.1711 17.224 88.5791 15.604 89.3951 14.212C90.2111 12.796 91.3031 11.692 92.6711 10.9C94.0631 10.108 95.6231 9.71196 97.3511 9.71196C99.0551 9.71196 100.591 10.108 101.959 10.9C103.351 11.692 104.443 12.796 105.235 14.212C106.051 15.604 106.459 17.224 106.459 19.072C106.459 20.92 106.051 22.552 105.235 23.968C104.443 25.36 103.351 26.452 101.959 27.244C100.567 28.036 99.0191 28.432 97.3151 28.432ZM97.3151 24.436C98.5151 24.436 99.5591 23.992 100.447 23.104C101.335 22.192 101.779 20.848 101.779 19.072C101.779 17.296 101.335 15.964 100.447 15.076C99.5591 14.164 98.5271 13.708 97.3511 13.708C96.1271 13.708 95.0711 14.164 94.1831 15.076C93.3191 15.964 92.8871 17.296 92.8871 19.072C92.8871 20.848 93.3191 22.192 94.1831 23.104C95.0711 23.992 96.1151 24.436 97.3151 24.436ZM114.683 10.144H110.579V28H115.187V19.864C115.187 18.496 115.403 17.428 115.835 16.66C116.291 15.892 116.915 15.352 117.707 15.04C118.499 14.728 119.399 14.572 120.407 14.572H121.703V9.71196C120.191 9.71196 118.871 10.06 117.743 10.756C116.639 11.428 115.763 12.34 115.115 13.492L114.683 10.144ZM133.284 28.432C131.46 28.432 129.852 28.036 128.46 27.244C127.068 26.452 125.964 25.348 125.148 23.932C124.356 22.516 123.96 20.896 123.96 19.072C123.96 17.248 124.356 15.628 125.148 14.212C125.964 12.796 127.068 11.692 128.46 10.9C129.852 10.108 131.46 9.71196 133.284 9.71196C135.564 9.71196 137.484 10.312 139.044 11.512C140.604 12.688 141.6 14.32 142.032 16.408H137.172C136.932 15.544 136.452 14.872 135.732 14.392C135.036 13.888 134.208 13.636 133.248 13.636C131.976 13.636 130.896 14.116 130.008 15.076C129.12 16.036 128.676 17.368 128.676 19.072C128.676 20.776 129.12 22.108 130.008 23.068C130.896 24.028 131.976 24.508 133.248 24.508C134.208 24.508 135.036 24.268 135.732 23.788C136.452 23.308 136.932 22.624 137.172 21.736H142.032C141.6 23.752 140.604 25.372 139.044 26.596C137.484 27.82 135.564 28.432 133.284 28.432Z" fill="black"></path>
</svg>
