<?xml version="1.0" encoding="UTF-8"?>
<svg xmlns="http://www.w3.org/2000/svg" width="170" height="30" viewBox="0 0 170 30" fill="none">
  <path d="M3.38574 28.9395L8.40174 0.439453H13.1137L8.09774 28.9395H3.38574ZM14.8617 28.9395L16.4577 19.5915C16.5591 19.0341 16.6477 18.4641 16.7237 17.8815C16.7997 17.2988 16.8377 16.7415 16.8377 16.2095C16.8377 15.3735 16.6224 14.7148 16.1917 14.2335C15.7737 13.7521 15.1657 13.5115 14.3677 13.5115C13.5697 13.5115 12.8541 13.6761 12.2207 14.0055C11.5874 14.3348 10.9351 14.7908 10.2637 15.3735L10.8907 11.8395C11.8027 11.0541 12.6957 10.4905 13.5697 10.1485C14.4437 9.80645 15.3684 9.63545 16.3437 9.63545C17.4964 9.63545 18.4654 9.87612 19.2507 10.3575C20.0361 10.8388 20.6251 11.5101 21.0177 12.3715C21.4231 13.2201 21.6257 14.1955 21.6257 15.2975C21.6257 15.7535 21.6004 16.2665 21.5497 16.8365C21.5117 17.3938 21.4231 18.0715 21.2837 18.8695L19.5737 28.9395H14.8617Z" fill="black"></path>
  <path d="M30.8295 29.3195C28.7648 29.3195 27.2258 28.7305 26.2125 27.5525C25.2118 26.3745 24.7115 24.7975 24.7115 22.8215C24.7115 22.4668 24.7305 22.0868 24.7685 21.6815C24.8191 21.2635 24.8888 20.8075 24.9775 20.3135L26.7635 9.93946H31.4755L29.7655 19.9715C29.6768 20.4781 29.6071 20.8961 29.5565 21.2255C29.5185 21.5548 29.4995 21.8715 29.4995 22.1755C29.4995 24.3035 30.4368 25.3675 32.3115 25.3675C33.0968 25.3675 33.7935 25.2091 34.4015 24.8925C35.0221 24.5631 35.5921 24.1071 36.1115 23.5245L35.7125 27.3435C34.9905 27.9261 34.2495 28.4011 33.4895 28.7685C32.7295 29.1358 31.8428 29.3195 30.8295 29.3195ZM35.2755 28.9395L35.8265 24.0755L38.3535 9.93946H43.0655L39.7215 28.9395H35.2755Z" fill="black"></path>
  <path d="M44.2061 28.9395L47.5501 9.93946H51.4261L51.4451 14.7655L48.9181 28.9395H44.2061ZM55.6441 28.9395C56.0114 26.8621 56.3154 25.1205 56.5561 23.7145C56.8094 22.2958 57.0121 21.1431 57.1641 20.2565C57.3161 19.3571 57.4301 18.6541 57.5061 18.1475C57.5947 17.6281 57.6517 17.2291 57.6771 16.9505C57.7151 16.6718 57.7341 16.4375 57.7341 16.2475C57.7341 15.1455 57.4237 14.4171 56.8031 14.0625C56.1951 13.6951 55.5301 13.5115 54.8081 13.5115C54.0354 13.5115 53.3641 13.6698 52.7941 13.9865C52.2241 14.3031 51.6794 14.7465 51.1601 15.3165L51.2551 11.5735C51.7744 11.0921 52.4964 10.6488 53.4211 10.2435C54.3457 9.83812 55.3274 9.63545 56.3661 9.63545C57.1767 9.63545 57.9684 9.78745 58.7411 10.0915C59.5264 10.3955 60.1914 10.8831 60.7361 11.5545C61.2934 12.2258 61.6291 13.1125 61.7431 14.2145L62.6551 15.5825L60.3181 28.9395H55.6441ZM67.0061 28.9395C67.3987 26.7101 67.7154 24.8735 67.9561 23.4295C68.2094 21.9855 68.4057 20.8391 68.5451 19.9905C68.6971 19.1418 68.8047 18.5021 68.8681 18.0715C68.9314 17.6281 68.9694 17.3115 68.9821 17.1215C69.0074 16.9315 69.0201 16.7668 69.0201 16.6275C69.0201 15.3735 68.7921 14.5438 68.3361 14.1385C67.8801 13.7205 67.2594 13.5115 66.4741 13.5115C65.5367 13.5115 64.7831 13.7015 64.2131 14.0815C63.6557 14.4488 63.2314 14.9175 62.9401 15.4875C62.6614 16.0448 62.4714 16.6148 62.3701 17.1975L61.0591 13.2835C61.0084 12.9288 61.2617 12.4665 61.8191 11.8965C62.3891 11.3138 63.1871 10.7945 64.2131 10.3385C65.2517 9.86979 66.4487 9.63545 67.8041 9.63545C69.8561 9.63545 71.3634 10.2245 72.3261 11.4025C73.2887 12.5678 73.7701 14.0941 73.7701 15.9815C73.7701 16.1588 73.7574 16.3741 73.7321 16.6275C73.7194 16.8681 73.6751 17.2355 73.5991 17.7295C73.5357 18.2108 73.4281 18.9075 73.2761 19.8195C73.1241 20.7188 72.9214 21.9095 72.6681 23.3915C72.4274 24.8608 72.1107 26.7101 71.7181 28.9395H67.0061Z" fill="black"></path>
  <path d="M86.1557 29.3195C84.661 29.3195 83.407 28.9711 82.3937 28.2745C81.3803 27.5651 80.595 26.6025 80.0377 25.3865L81.2917 24.5315L80.1897 28.9395H75.9717L80.9877 0.439453H85.7377L83.3817 13.6825L82.7737 12.6565C83.2423 11.9851 83.7934 11.4278 84.4267 10.9845C85.0727 10.5411 85.763 10.2055 86.4977 9.97746C87.245 9.74946 88.005 9.63545 88.7777 9.63545C90.285 9.63545 91.5517 9.99645 92.5777 10.7185C93.6037 11.4278 94.3764 12.3968 94.8957 13.6255C95.4277 14.8415 95.6937 16.2095 95.6937 17.7295C95.6937 19.1861 95.4783 20.6048 95.0477 21.9855C94.6297 23.3661 94.0154 24.6138 93.2047 25.7285C92.394 26.8305 91.3933 27.7045 90.2027 28.3505C89.0247 28.9965 87.6757 29.3195 86.1557 29.3195ZM85.5097 25.4435C86.5863 25.4435 87.5237 25.1141 88.3217 24.4555C89.1197 23.7841 89.734 22.8975 90.1647 21.7955C90.608 20.6935 90.8297 19.4901 90.8297 18.1855C90.8297 16.7921 90.5574 15.6648 90.0127 14.8035C89.4807 13.9421 88.613 13.5115 87.4097 13.5115C86.1937 13.5115 85.1804 13.8725 84.3697 14.5945C83.559 15.3165 82.951 16.2475 82.5457 17.3875C82.1404 18.5275 81.9377 19.7308 81.9377 20.9975C81.9377 22.3655 82.2037 23.4485 82.7357 24.2465C83.2803 25.0445 84.205 25.4435 85.5097 25.4435Z" fill="black"></path>
  <path d="M107.419 29.3195C105.925 29.3195 104.671 28.9711 103.657 28.2745C102.644 27.5651 101.859 26.6025 101.301 25.3865L102.555 24.5315L101.453 28.9395H97.2354L102.251 0.439453H107.001L104.645 13.6825L104.037 12.6565C104.506 11.9851 105.057 11.4278 105.69 10.9845C106.336 10.5411 107.027 10.2055 107.761 9.97746C108.509 9.74946 109.269 9.63545 110.041 9.63545C111.549 9.63545 112.815 9.99645 113.841 10.7185C114.867 11.4278 115.64 12.3968 116.159 13.6255C116.691 14.8415 116.957 16.2095 116.957 17.7295C116.957 19.1861 116.742 20.6048 116.311 21.9855C115.893 23.3661 115.279 24.6138 114.468 25.7285C113.658 26.8305 112.657 27.7045 111.466 28.3505C110.288 28.9965 108.939 29.3195 107.419 29.3195ZM106.773 25.4435C107.85 25.4435 108.787 25.1141 109.585 24.4555C110.383 23.7841 110.998 22.8975 111.428 21.7955C111.872 20.6935 112.093 19.4901 112.093 18.1855C112.093 16.7921 111.821 15.6648 111.276 14.8035C110.744 13.9421 109.877 13.5115 108.673 13.5115C107.457 13.5115 106.444 13.8725 105.633 14.5945C104.823 15.3165 104.215 16.2475 103.809 17.3875C103.404 18.5275 103.201 19.7308 103.201 20.9975C103.201 22.3655 103.467 23.4485 103.999 24.2465C104.544 25.0445 105.469 25.4435 106.773 25.4435Z" fill="black"></path>
  <path d="M128.683 29.3195C127.188 29.3195 125.934 28.9711 124.921 28.2745C123.908 27.5651 123.122 26.6025 122.565 25.3865L123.819 24.5315L122.717 28.9395H118.499L123.515 0.439453H128.265L125.909 13.6825L125.301 12.6565C125.77 11.9851 126.321 11.4278 126.954 10.9845C127.6 10.5411 128.29 10.2055 129.025 9.97746C129.772 9.74946 130.532 9.63545 131.305 9.63545C132.812 9.63545 134.079 9.99645 135.105 10.7185C136.131 11.4278 136.904 12.3968 137.423 13.6255C137.955 14.8415 138.221 16.2095 138.221 17.7295C138.221 19.1861 138.006 20.6048 137.575 21.9855C137.157 23.3661 136.543 24.6138 135.732 25.7285C134.921 26.8305 133.921 27.7045 132.73 28.3505C131.552 28.9965 130.203 29.3195 128.683 29.3195ZM128.037 25.4435C129.114 25.4435 130.051 25.1141 130.849 24.4555C131.647 23.7841 132.261 22.8975 132.692 21.7955C133.135 20.6935 133.357 19.4901 133.357 18.1855C133.357 16.7921 133.085 15.6648 132.54 14.8035C132.008 13.9421 131.14 13.5115 129.937 13.5115C128.721 13.5115 127.708 13.8725 126.897 14.5945C126.086 15.3165 125.478 16.2475 125.073 17.3875C124.668 18.5275 124.465 19.7308 124.465 20.9975C124.465 22.3655 124.731 23.4485 125.263 24.2465C125.808 25.0445 126.732 25.4435 128.037 25.4435Z" fill="black"></path>
  <path d="M144.323 29.3195C142.955 29.3195 141.96 28.9648 141.34 28.2555C140.719 27.5335 140.409 26.6341 140.409 25.5575C140.409 25.2661 140.447 24.8545 140.523 24.3225C140.611 23.7778 140.751 22.9735 140.941 21.9095L144.741 0.439453H149.453L145.615 22.2895C145.526 22.8215 145.456 23.2395 145.406 23.5435C145.368 23.8348 145.349 24.0755 145.349 24.2655C145.349 24.8481 145.507 25.1901 145.824 25.2915C146.153 25.3928 146.59 25.4435 147.135 25.4435L146.033 29.3195H144.323Z" fill="black"></path>
  <path d="M154.69 18.0145C155.133 18.1285 155.526 18.2045 155.868 18.2425C156.222 18.2805 156.615 18.2995 157.046 18.2995C158.591 18.2995 159.788 18.1601 160.637 17.8815C161.498 17.5901 162.093 17.2228 162.423 16.7795C162.765 16.3235 162.936 15.8548 162.936 15.3735C162.936 14.8035 162.777 14.3855 162.461 14.1195C162.157 13.8535 161.808 13.6888 161.416 13.6255C161.036 13.5495 160.732 13.5115 160.504 13.5115C159.478 13.5115 158.597 13.7965 157.863 14.3665C157.128 14.9365 156.539 15.6015 156.096 16.3615C155.665 17.1215 155.38 17.7865 155.241 18.3565L154.899 20.7125C154.911 21.8778 155.127 22.8088 155.545 23.5055C155.975 24.1895 156.526 24.6835 157.198 24.9875C157.869 25.2915 158.566 25.4435 159.288 25.4435C160.428 25.4435 161.504 25.2915 162.518 24.9875C163.531 24.6835 164.443 24.3161 165.254 23.8855L164.722 27.8755C163.949 28.2935 163.018 28.6418 161.929 28.9205C160.852 29.1865 159.668 29.3195 158.376 29.3195C156.45 29.3195 154.867 28.9585 153.626 28.2365C152.384 27.5018 151.466 26.5201 150.871 25.2915C150.275 24.0501 149.978 22.6695 149.978 21.1495C149.978 19.6928 150.231 18.2805 150.738 16.9125C151.244 15.5445 151.966 14.3158 152.904 13.2265C153.841 12.1245 154.968 11.2505 156.286 10.6045C157.603 9.95845 159.072 9.63545 160.694 9.63545C162.708 9.63545 164.24 10.1421 165.292 11.1555C166.356 12.1561 166.888 13.4861 166.888 15.1455C166.888 16.2981 166.641 17.2735 166.147 18.0715C165.653 18.8695 164.975 19.5155 164.114 20.0095C163.265 20.4908 162.296 20.8391 161.207 21.0545C160.13 21.2698 158.996 21.3775 157.806 21.3775C157.109 21.3775 156.463 21.3458 155.868 21.2825C155.272 21.2191 154.785 21.1368 154.405 21.0355L154.69 18.0145Z" fill="black"></path>
</svg>
