<?xml version="1.0" encoding="UTF-8"?>
<svg xmlns="http://www.w3.org/2000/svg" width="150" height="36" viewBox="0 0 150 36" fill="none">
  <path fill-rule="evenodd" clip-rule="evenodd" d="M34.3672 18C34.3672 26.2843 27.6515 33 19.3672 33C11.0829 33 4.36719 26.2843 4.36719 18C4.36719 9.71573 11.0829 3 19.3672 3C27.6515 3 34.3672 9.71573 34.3672 18ZM19.6231 12.4481C18.9632 12.4481 18.4205 12.2574 17.9952 11.8761C17.5845 11.4801 17.3792 10.9961 17.3792 10.4241C17.3792 9.83739 17.5845 9.35339 17.9952 8.97205C18.4205 8.57605 18.9632 8.37805 19.6231 8.37805C20.2685 8.37805 20.7965 8.57605 21.2071 8.97205C21.6325 9.35339 21.8451 9.83739 21.8451 10.4241C21.8451 10.9961 21.6325 11.4801 21.2071 11.8761C20.7965 12.2574 20.2685 12.4481 19.6231 12.4481ZM21.4932 13.7241V26.0001H17.7312V13.7241H21.4932ZM121.509 9.28804C120.549 9.28804 119.76 9.01071 119.141 8.45604C118.544 7.88004 118.245 7.17604 118.245 6.34404C118.245 5.49071 118.544 4.78671 119.141 4.23204C119.76 3.65604 120.549 3.36804 121.509 3.36804C122.448 3.36804 123.216 3.65604 123.813 4.23204C124.432 4.78671 124.741 5.49071 124.741 6.34404C124.741 7.17604 124.432 7.88004 123.813 8.45604C123.216 9.01071 122.448 9.28804 121.509 9.28804ZM124.229 11.144V29H118.757V11.144H124.229ZM46.8231 6.53604V29H41.3511V6.53604H46.8231ZM61.6686 10.952C63.7592 10.952 65.4232 11.6347 66.6606 13C67.9192 14.344 68.5486 16.2 68.5486 18.568V29H63.1086V19.304C63.1086 18.1094 62.7992 17.1814 62.1806 16.52C61.5619 15.8587 60.7299 15.528 59.6846 15.528C58.6392 15.528 57.8072 15.8587 57.1886 16.52C56.5699 17.1814 56.2606 18.1094 56.2606 19.304V29H50.7886V11.144H56.2606V13.512C56.8152 12.7227 57.5619 12.104 58.5006 11.656C59.4392 11.1867 60.4952 10.952 61.6686 10.952ZM82.3031 29V24.36H80.3511C79.7537 24.36 79.3271 24.2427 79.0711 24.008C78.8151 23.7734 78.6871 23.3894 78.6871 22.856V15.688H82.2711V11.144H78.6871V6.79204H73.2151V11.144H71.0391V15.688H73.2151V22.792C73.2151 24.9894 73.7697 26.5787 74.8791 27.56C75.9884 28.52 77.5351 29 79.5191 29H82.3031ZM102.183 19.784C102.183 20.296 102.151 20.8294 102.087 21.384H89.7031C89.7884 22.4934 90.1404 23.3467 90.7591 23.944C91.3991 24.52 92.1777 24.808 93.0951 24.808C94.4604 24.808 95.4097 24.232 95.9431 23.08H101.767C101.468 24.2534 100.924 25.3094 100.135 26.248C99.3671 27.1867 98.3964 27.9227 97.2231 28.456C96.0497 28.9894 94.7377 29.256 93.2871 29.256C91.5377 29.256 89.9804 28.8827 88.6151 28.136C87.2497 27.3894 86.1831 26.3227 85.4151 24.936C84.6471 23.5494 84.2631 21.928 84.2631 20.072C84.2631 18.216 84.6364 16.5947 85.3831 15.208C86.1511 13.8214 87.2177 12.7547 88.5831 12.008C89.9484 11.2614 91.5164 10.888 93.2871 10.888C95.0151 10.888 96.5511 11.2507 97.8951 11.976C99.2391 12.7014 100.284 13.736 101.031 15.08C101.799 16.424 102.183 17.992 102.183 19.784ZM96.5831 18.344C96.5831 17.4054 96.2631 16.6587 95.6231 16.104C94.9831 15.5494 94.1831 15.272 93.2231 15.272C92.3057 15.272 91.5271 15.5387 90.8871 16.072C90.2684 16.6054 89.8844 17.3627 89.7351 18.344H96.5831ZM112.942 11.816C111.982 12.3707 111.182 13.1387 110.542 14.12V11.144H105.07V29H110.542V20.712C110.542 19.24 110.883 18.216 111.566 17.64C112.248 17.0427 113.272 16.744 114.638 16.744H116.142V10.952C114.968 10.952 113.902 11.24 112.942 11.816ZM128.131 15.208C127.448 16.5947 127.107 18.2054 127.107 20.04C127.107 21.8747 127.448 23.496 128.131 24.904C128.835 26.2907 129.784 27.368 130.979 28.136C132.173 28.8827 133.496 29.256 134.947 29.256C136.205 29.256 137.304 29 138.243 28.488C139.203 27.976 139.949 27.304 140.483 26.472V29H145.955V11.144H140.483V13.672C139.971 12.84 139.235 12.168 138.275 11.656C137.336 11.144 136.237 10.888 134.979 10.888C133.507 10.888 132.173 11.2614 130.979 12.008C129.784 12.7547 128.835 13.8214 128.131 15.208ZM139.331 16.84C140.099 17.6294 140.483 18.7067 140.483 20.072C140.483 21.4374 140.099 22.5147 139.331 23.304C138.584 24.0934 137.667 24.488 136.579 24.488C135.491 24.488 134.563 24.0934 133.795 23.304C133.048 22.4934 132.675 21.4054 132.675 20.04C132.675 18.6747 133.048 17.608 133.795 16.84C134.563 16.0507 135.491 15.656 136.579 15.656C137.667 15.656 138.584 16.0507 139.331 16.84Z" fill="black"></path>
</svg>
