<svg xmlns="http://www.w3.org/2000/svg" version="1.1" xmlns:xlink="http://www.w3.org/1999/xlink" xmlns:svgjs="http://svgjs.dev/svgjs" width="1500" height="1500" viewBox="0 0 1500 1500"><rect width="1500" height="1500" fill="#ffffff"></rect><g transform="matrix(0.6666666666666666,0,0,0.6666666666666666,249.39393939393938,568.4579221627525)"><svg viewBox="0 0 396 144" data-background-color="#ffffff" preserveAspectRatio="xMidYMid meet" height="545" width="1500" xmlns="http://www.w3.org/2000/svg" xmlns:xlink="http://www.w3.org/1999/xlink"><g id="tight-bounds" transform="matrix(1,0,0,1,0.2400000000000091,-0.049154072513005076)"><svg viewBox="0 0 395.52 144.09853239756723" height="144.09853239756723" width="395.52"><g><svg viewBox="0 0 668.3295362483419 243.4903553077791" height="144.09853239756723" width="395.52"><g transform="matrix(1,0,0,1,272.80953624834194,88.09532202815998)"><svg viewBox="0 0 395.52 67.29971125145913" height="67.29971125145913" width="395.52"><g id="textblocktransform"><svg viewBox="0 0 395.52 67.29971125145913" height="67.29971125145913" width="395.52" id="textblock"><g><svg viewBox="0 0 395.52 49.67752916952642" height="49.67752916952642" width="395.52"><g transform="matrix(1,0,0,1,0,0)"><svg width="395.52" viewBox="1.75 -35.75 364.22 45.75" height="49.67752916952642" data-palette-color="#a437db"><path d="M14.75 0.75Q11.2 0.75 8.1-0.85L8.1-0.85Q6.7-1.55 5.75-2.5L5.75-2.5Q5.05-1.35 4-0.45L4-0.45Q3.1 0.2 3 0.25L3 0.25 1.75 0.25 1.75-9.25 3.75-9.25Q4.5-6.8 5.85-4.85L5.85-4.85Q8.9-0.5 13.75-0.5L13.75-0.5Q16.6-0.5 18.3-2.2 20-3.9 20-6.75L20-6.75Q20-8.4 19.03-9.7 18.05-11 16.6-12 15.15-13 12.55-14.5L12.55-14.5Q9.25-16.35 7.2-17.85 5.15-19.35 3.7-21.63 2.25-23.9 2.25-27L2.25-27Q2.25-29.45 3.63-31.43 5-33.4 7.75-34.58 10.5-35.75 14.5-35.75L14.5-35.75Q17.4-35.75 20.3-34.1L20.3-34.1Q21.4-33.5 22.5-32.5L22.5-32.5Q23.35-33.8 24.25-34.55L24.25-34.55Q25.15-35.2 25.25-35.25L25.25-35.25 26.5-35.25 26.5-25.75 24.5-25.75Q23.85-28.15 22.55-30.1L22.55-30.1Q21.35-32 19.58-33.25 17.8-34.5 15.5-34.5L15.5-34.5Q13.55-34.5 12.15-32.95 10.75-31.4 10.75-29L10.75-29Q10.75-27.15 11.83-25.68 12.9-24.2 14.48-23.1 16.05-22 18.75-20.45L18.75-20.45Q21.9-18.65 23.85-17.25 25.8-15.85 27.15-13.78 28.5-11.7 28.5-9L28.5-9Q28.5-6.3 26.95-4.08 25.4-1.85 22.3-0.55 19.2 0.75 14.75 0.75L14.75 0.75ZM31.75 0L31.75-0.75 34.75-1.5 34.75-23.5 31.75-24.25 31.75-25 36.25-25Q39.2-25 40.9-23.1L40.9-23.1Q41.55-22.35 42-21.25L42-21.25Q42.7-22.55 43.65-23.5L43.65-23.5Q45.9-25.75 49.25-25.75L49.25-25.75Q52.05-25.75 54.27-24.58 56.5-23.4 57.75-21.5 59-19.6 59-17.5L59-17.5 59-1.5 62-0.75 62 0 55.5 0Q51 0 51-4.5L51-4.5 51-17.5Q51-20.65 49.87-22.33 48.75-24 47.25-24L47.25-24Q45.35-24 43.85-22L43.85-22Q43.2-21.15 42.75-20L42.75-20 42.75-1.5 45.75-0.75 45.75 0 31.75 0ZM74.75 0.75Q70.3 0.75 67.9-1.15 65.5-3.05 65.5-6L65.5-6Q65.5-7.95 66.34-9.85L66.34-9.85Q66.7-10.75 67.25-11.5L67.25-11.5Q69.3-12 71.7-12.4L71.7-12.4Q77.09-13.3 81.25-13.5L81.25-13.5 81.25-15Q81.25-20.55 79.9-22.65 78.55-24.75 75.75-24.75L75.75-24.75Q74.7-24.75 73.95-24.5L73.95-24.5 73.25-24.25 73.25-16.75 72.59-16.6Q71.8-16.5 71.25-16.5L71.25-16.5Q69.55-16.5 68.52-17.53 67.5-18.55 67.5-20.25L67.5-20.25Q67.5-22.55 69.82-24.15 72.15-25.75 76.75-25.75L76.75-25.75Q80.65-25.75 83.47-24.38 86.3-23 87.77-20.58 89.25-18.15 89.25-15L89.25-15 89.25-1.5 92.25-0.75 92.25 0 87.75 0Q84.75 0 83.09-1.85L83.09-1.85Q82.4-2.6 82-3.75L82-3.75Q81.3-2.5 80.34-1.5L80.34-1.5Q78.09 0.75 74.75 0.75L74.75 0.75ZM76.75-1Q78.59-1 80.09-3L80.09-3Q80.65-3.75 81.25-5L81.25-5 81.25-12.25Q78.95-12.25 76.84-12L76.84-12Q75.3-11.8 74.75-11.75L74.75-11.75Q74.5-11.2 74.25-10.25L74.25-10.25Q73.75-8.35 73.75-6.5L73.75-6.5Q73.75-3.7 74.59-2.35 75.45-1 76.75-1L76.75-1ZM94.74 10L94.74 9.25 97.74 8.5 97.74-23.5 94.74-24.25 94.74-25 99.24-25Q102.19-25 103.89-23.1L103.89-23.1Q104.54-22.35 104.99-21.25L104.99-21.25Q105.64-22.55 106.64-23.5L106.64-23.5Q108.89-25.75 112.24-25.75L112.24-25.75Q115.19-25.75 117.49-24.23 119.79-22.7 121.14-19.73 122.49-16.75 122.49-12.5L122.49-12.5Q122.49-6.1 119.52-2.68 116.54 0.75 111.49 0.75L111.49 0.75Q109.09 0.75 107.29-0.25L107.29-0.25Q106.54-0.6 105.74-1.25L105.74-1.25 105.74 8.5 108.74 9.25 108.74 10 94.74 10ZM109.49-0.75Q111.64-0.75 112.82-3.25 113.99-5.75 113.99-12.5L113.99-12.5Q113.99-18.95 112.92-21.48 111.84-24 110.24-24L110.24-24Q108.34-24 106.84-22L106.84-22Q106.19-21.15 105.74-20L105.74-20 105.74-2.75Q106.44-2.05 106.84-1.75L106.84-1.75Q108.19-0.75 109.49-0.75L109.49-0.75ZM139.24 0.75Q135.69 0.75 132.59-0.85L132.59-0.85Q131.19-1.55 130.24-2.5L130.24-2.5Q129.54-1.35 128.49-0.45L128.49-0.45Q127.59 0.2 127.49 0.25L127.49 0.25 126.24 0.25 126.24-9.25 128.24-9.25Q128.99-6.8 130.34-4.85L130.34-4.85Q133.39-0.5 138.24-0.5L138.24-0.5Q141.09-0.5 142.79-2.2 144.49-3.9 144.49-6.75L144.49-6.75Q144.49-8.4 143.52-9.7 142.54-11 141.09-12 139.64-13 137.04-14.5L137.04-14.5Q133.74-16.35 131.69-17.85 129.64-19.35 128.19-21.63 126.74-23.9 126.74-27L126.74-27Q126.74-29.45 128.12-31.43 129.49-33.4 132.24-34.58 134.99-35.75 138.99-35.75L138.99-35.75Q141.89-35.75 144.79-34.1L144.79-34.1Q145.89-33.5 146.99-32.5L146.99-32.5Q147.84-33.8 148.74-34.55L148.74-34.55Q149.64-35.2 149.74-35.25L149.74-35.25 150.99-35.25 150.99-25.75 148.99-25.75Q148.34-28.15 147.04-30.1L147.04-30.1Q145.84-32 144.06-33.25 142.29-34.5 139.99-34.5L139.99-34.5Q138.04-34.5 136.64-32.95 135.24-31.4 135.24-29L135.24-29Q135.24-27.15 136.31-25.68 137.39-24.2 138.97-23.1 140.54-22 143.24-20.45L143.24-20.45Q146.39-18.65 148.34-17.25 150.29-15.85 151.64-13.78 152.99-11.7 152.99-9L152.99-9Q152.99-6.3 151.44-4.08 149.89-1.85 146.79-0.55 143.69 0.75 139.24 0.75L139.24 0.75ZM156.24 0L156.24-0.75 159.24-1.5 159.24-33.5 156.24-34.25 156.24-35 162.74-35Q167.24-35 167.24-30.5L167.24-30.5 167.24-22.5Q167.99-23.5 168.79-24.1L168.79-24.1Q170.94-25.75 173.74-25.75L173.74-25.75Q176.54-25.75 178.76-24.58 180.99-23.4 182.24-21.5 183.49-19.6 183.49-17.5L183.49-17.5 183.49-1.5 186.49-0.75 186.49 0 179.99 0Q175.49 0 175.49-4.5L175.49-4.5 175.49-17.5Q175.49-20.65 174.36-22.33 173.24-24 171.74-24L171.74-24Q169.84-24 168.34-22L168.34-22Q167.69-21.15 167.24-20L167.24-20 167.24-1.5 170.24-0.75 170.24 0 156.24 0ZM202.74 0.75Q196.54 0.75 193.01-2.78 189.49-6.3 189.49-12.5L189.49-12.5Q189.49-18.7 193.01-22.23 196.54-25.75 202.74-25.75L202.74-25.75Q208.94-25.75 212.46-22.23 215.99-18.7 215.99-12.5L215.99-12.5Q215.99-6.3 212.46-2.78 208.94 0.75 202.74 0.75L202.74 0.75ZM202.74-0.25Q204.74-0.25 206.11-3.05 207.49-5.85 207.49-12.5L207.49-12.5Q207.49-19.15 206.11-21.95 204.74-24.75 202.74-24.75L202.74-24.75Q200.74-24.75 199.36-21.95 197.99-19.15 197.99-12.5L197.99-12.5Q197.99-5.85 199.36-3.05 200.74-0.25 202.74-0.25L202.74-0.25ZM219.98 0L219.98-0.75 222.98-1.5 222.98-23.5 219.98-24.25 219.98-25 224.48-25Q227.43-25 229.13-23.1L229.13-23.1Q229.78-22.35 230.23-21.25L230.23-21.25Q230.98-22.35 232.08-23.25L232.08-23.25Q234.58-25.25 237.68-25.25L237.68-25.25Q240.33-25.25 241.66-24.03 242.98-22.8 242.98-20.5L242.98-20.5Q242.98-18.8 241.96-17.78 240.93-16.75 239.23-16.75L239.23-16.75Q238.53-16.75 237.83-16.85L237.83-16.85 237.23-17 237.23-24Q234.68-24 232.58-22L232.58-22Q231.58-21 230.98-20L230.98-20 230.98-1.5 233.98-0.75 233.98 0 219.98 0ZM258.73 0.75Q255.43 0.75 253.01-0.45 250.58-1.65 249.28-3.75 247.98-5.85 247.98-8.5L247.98-8.5 247.98-23.75 244.48-23.75 244.48-25 247.98-25 247.98-27.5Q247.98-32 252.48-32L252.48-32 255.98-32 255.98-25 262.98-25 262.98-23.75 255.98-23.75 255.98-8.5Q255.98-3.9 256.93-2.2 257.88-0.5 259.73-0.5L259.73-0.5Q261.53-0.5 262.88-2.25 264.23-4 264.23-7L264.23-7 265.48-7Q265.48-3.3 263.63-1.28 261.78 0.75 258.73 0.75L258.73 0.75ZM285.98 0.75Q278.58 0.75 274.78-2.73 270.98-6.2 270.98-12.5L270.98-12.5 270.98-33.5 267.98-34.25 267.98-35 282.23-35 282.23-34.25 279.23-33.5 279.23-12.5Q279.23-6.05 281.23-3.28 283.23-0.5 286.98-0.5L286.98-0.5Q289.28-0.5 291.35-1.98 293.43-3.45 294.7-6.18 295.98-8.9 295.98-12.5L295.98-12.5 295.98-32.75 291.98-34.25 291.98-35 301.48-35 301.48-34.25 297.48-32.75 297.48-12.5Q297.48-8.45 295.98-5.45 294.48-2.45 291.88-0.85 289.28 0.75 285.98 0.75L285.98 0.75ZM304.23 0L304.23-0.75 307.23-1.5 307.23-33.5 304.23-34.25 304.23-35 317.48-35Q325.98-35 329.73-32.43 333.48-29.85 333.48-25.25L333.48-25.25Q333.48-22.15 331.83-20.23 330.18-18.3 327.58-17.35L327.58-17.35Q324.83-16.3 321.73-16.25L321.73-16.25 321.73-16Q323.58-15.9 324.98-15.45L324.98-15.45Q328.48-14.35 329.73-11.5L329.73-11.5 334.23-1.5 336.73-0.75 336.73 0 329.73 0Q325.63 0 323.73-4.25L323.73-4.25 318.73-15.5 315.48-15.5 315.48-1.5 318.98-0.75 318.98 0 304.23 0ZM315.48-16.75L317.48-16.75Q320.98-16.75 322.98-18.95 324.98-21.15 324.98-25.25L324.98-25.25Q324.98-29.35 322.98-31.55 320.98-33.75 317.48-33.75L317.48-33.75 315.48-33.75 315.48-16.75ZM339.22 0L339.22-0.75 342.22-1.5 342.22-33.5 339.22-34.25 339.22-35 353.47-35 353.47-34.25 350.47-33.5 350.47-1.25 361.22-1.25Q361.22-4.4 362.82-7.1L362.82-7.1Q363.52-8.25 364.47-9L364.47-9 365.97-9 365.97 0 339.22 0Z" opacity="1" transform="matrix(1,0,0,1,0,0)" fill="#a437db" class="wordmark-text-0" data-fill-palette-color="primary" id="text-0"></path></svg></g></svg></g><g transform="matrix(1,0,0,1,0,61.405201545751545)"><svg viewBox="0 0 232.209792 5.894509705707584" height="5.894509705707584" width="232.209792"><g transform="matrix(1,0,0,1,0,0)"><svg width="232.209792" viewBox="0 -29.5 1918.39 48.7" height="5.894509705707584" data-palette-color="#bb84e8"><path d="M4.5 0L0 0 0-29.5 4.5-29.5 4.5 0ZM12 0L10.5 0 10.5-29.5 12-29.5 12 0ZM18 0L13.5 0 13.5-29.5 18-29.5 18 0ZM21 0L19.5 0 19.5-29.5 21-29.5 21 0ZM24 0L22.5 0 22.5-29.5 24-29.5 24 0ZM12.2 15.95L12.2 11.4 8.6 4.35 10.1 4.35 12.95 10 15.5 4.35 16.9 4.35 13.6 11.4 13.6 15.95 12.2 15.95ZM27 0L25.5 0 25.5-29.5 27-29.5 27 0ZM34.5 0L33 0 33-29.5 34.5-29.5 34.5 0ZM37.5 0L36 0 36-29.5 37.5-29.5 37.5 0ZM45 0L43.5 0 43.5-29.5 45-29.5 45 0ZM52.5 0L51 0 51-29.5 52.5-29.5 52.5 0ZM58.5 0L54 0 54-29.5 58.5-29.5 58.5 0ZM61.5 0L60 0 60-29.5 61.5-29.5 61.5 0ZM67.5 0L63 0 63-29.5 67.5-29.5 67.5 0ZM70.5 0L69 0 69-29.5 70.5-29.5 70.5 0ZM78 0L76.5 0 76.5-29.5 78-29.5 78 0ZM52.5 16.1L52.5 16.1Q51.35 16.1 50.45 15.55L50.45 15.55Q49.6 15 49.1 14L49.1 14Q48.55 13 48.55 11.7L48.55 11.7Q48.55 10.4 49.1 9.4L49.1 9.4Q49.6 8.4 50.45 7.85L50.45 7.85Q51.35 7.25 52.5 7.25L52.5 7.25Q53.65 7.25 54.5 7.85L54.5 7.85Q55.4 8.4 55.9 9.4L55.9 9.4Q56.4 10.4 56.4 11.7L56.4 11.7Q56.4 13 55.9 14L55.9 14Q55.4 15 54.5 15.55L54.5 15.55Q53.65 16.1 52.5 16.1ZM52.5 15L52.5 15Q53.2 15 53.8 14.55L53.8 14.55Q54.35 14.15 54.7 13.4L54.7 13.4Q55 12.6 55 11.65L55 11.65Q55 10.2 54.3 9.3L54.3 9.3Q53.6 8.4 52.5 8.4L52.5 8.4Q51.4 8.4 50.7 9.3L50.7 9.3Q50 10.2 50 11.65L50 11.65Q50 12.6 50.3 13.4L50.3 13.4Q50.65 14.15 51.2 14.55L51.2 14.55Q51.75 15 52.5 15ZM81 0L79.5 0 79.5-29.5 81-29.5 81 0ZM88.5 0L87 0 87-29.5 88.5-29.5 88.5 0ZM91.5 0L90 0 90-29.5 91.5-29.5 91.5 0ZM99 0L97.5 0 97.5-29.5 99-29.5 99 0ZM106.5 0L105 0 105-29.5 106.5-29.5 106.5 0ZM112.5 0L108 0 108-29.5 112.5-29.5 112.5 0ZM120 0L118.5 0 118.5-29.5 120-29.5 120 0ZM123 0L121.5 0 121.5-29.5 123-29.5 123 0ZM126 0L124.5 0 124.5-29.5 126-29.5 126 0ZM132 0L127.5 0 127.5-29.5 132-29.5 132 0ZM105.95 16.15L105.95 16.15Q104.59 16.15 103.8 15.15L103.8 15.15Q103 14.15 103.05 12.2L103.05 12.2 103.05 7.45 104.34 7.45 104.34 12.2Q104.34 13.7 104.9 14.4L104.9 14.4Q105.4 15.1 106.3 15.1L106.3 15.1Q107.25 15.1 107.9 14.3L107.9 14.3Q108.59 13.55 108.59 12.15L108.59 12.15 108.59 7.45 109.9 7.45 109.9 14.65Q109.9 15.1 109.9 15.35L109.9 15.35Q109.95 15.65 110.05 15.95L110.05 15.95 108.8 15.95Q108.65 15.65 108.65 15.35L108.65 15.35Q108.59 15.1 108.59 14.65L108.59 14.65Q108.2 15.35 107.5 15.75L107.5 15.75Q106.8 16.15 105.95 16.15ZM134.99 0L133.49 0 133.49-29.5 134.99-29.5 134.99 0ZM142.49 0L140.99 0 140.99-29.5 142.49-29.5 142.49 0ZM145.49 0L143.99 0 143.99-29.5 145.49-29.5 145.49 0ZM152.99 0L151.49 0 151.49-29.5 152.99-29.5 152.99 0ZM160.49 0L158.99 0 158.99-29.5 160.49-29.5 160.49 0ZM166.49 0L161.99 0 161.99-29.5 166.49-29.5 166.49 0ZM169.49 0L167.99 0 167.99-29.5 169.49-29.5 169.49 0ZM172.49 0L170.99 0 170.99-29.5 172.49-29.5 172.49 0ZM178.49 0L173.99 0 173.99-29.5 178.49-29.5 178.49 0ZM185.99 0L184.49 0 184.49-29.5 185.99-29.5 185.99 0ZM162.09 7.25L162.09 7.25Q163.44 7.25 164.34 8.2L164.34 8.2 163.74 9.2 163.69 9.4 163.54 9.3Q163.49 9.1 163.44 9L163.44 9Q163.34 8.85 163.09 8.7L163.09 8.7Q162.64 8.4 161.99 8.4L161.99 8.4Q161.34 8.4 160.74 8.75L160.74 8.75Q160.14 9.05 159.79 9.75L159.79 9.75Q159.39 10.45 159.39 11.45L159.39 11.45 159.39 15.95 158.04 15.95 158.04 7.45 159.44 7.45 159.39 9Q159.74 8.2 160.49 7.7L160.49 7.7Q161.24 7.25 162.09 7.25ZM188.99 0L187.49 0 187.49-29.5 188.99-29.5 188.99 0ZM199.49 0L194.99 0 194.99-29.5 199.49-29.5 199.49 0ZM202.49 0L200.99 0 200.99-29.5 202.49-29.5 202.49 0ZM208.49 0L203.99 0 203.99-29.5 208.49-29.5 208.49 0ZM211.49 0L209.99 0 209.99-29.5 211.49-29.5 211.49 0ZM214.49 0L212.99 0 212.99-29.5 214.49-29.5 214.49 0ZM220.49 0L215.99 0 215.99-29.5 220.49-29.5 220.49 0ZM223.49 0L221.99 0 221.99-29.5 223.49-29.5 223.49 0ZM226.49 0L224.99 0 224.99-29.5 226.49-29.5 226.49 0ZM236.99 0L232.49 0 232.49-29.5 236.99-29.5 236.99 0ZM222.34 15.95L222.34 4.35 223.84 4.35 223.84 4.5Q223.74 4.6 223.69 4.75L223.69 4.75Q223.69 4.85 223.69 5.2L223.69 5.2 223.69 14.85 229.24 14.85 229.24 15.95 222.34 15.95ZM239.99 0L238.49 0 238.49-29.5 239.99-29.5 239.99 0ZM247.49 0L245.99 0 245.99-29.5 247.49-29.5 247.49 0ZM250.49 0L248.99 0 248.99-29.5 250.49-29.5 250.49 0ZM257.99 0L256.49 0 256.49-29.5 257.99-29.5 257.99 0ZM265.49 0L263.99 0 263.99-29.5 265.49-29.5 265.49 0ZM268.49 0L266.99 0 266.99-29.5 268.49-29.5 268.49 0ZM274.49 0L269.99 0 269.99-29.5 274.49-29.5 274.49 0ZM277.49 0L275.99 0 275.99-29.5 277.49-29.5 277.49 0ZM287.99 0L283.49 0 283.49-29.5 287.99-29.5 287.99 0ZM290.99 0L289.49 0 289.49-29.5 290.99-29.5 290.99 0ZM262.69 15.95L262.69 14.85 264.88 14.85 264.88 8.55 262.79 8.55 262.79 7.45 266.19 7.45 266.19 14.85 268.19 14.85 268.19 15.95 262.69 15.95ZM265.49 5.65L265.49 5.65Q265.09 5.65 264.79 5.4L264.79 5.4Q264.54 5.1 264.54 4.7L264.54 4.7Q264.54 4.3 264.79 4.05L264.79 4.05Q265.04 3.75 265.49 3.75L265.49 3.75Q265.84 3.75 266.13 4.05L266.13 4.05Q266.44 4.35 266.44 4.7L266.44 4.7Q266.44 5.1 266.13 5.4L266.13 5.4Q265.84 5.65 265.49 5.65ZM293.98 0L292.48 0 292.48-29.5 293.98-29.5 293.98 0ZM301.48 0L299.98 0 299.98-29.5 301.48-29.5 301.48 0ZM304.48 0L302.98 0 302.98-29.5 304.48-29.5 304.48 0ZM311.98 0L310.48 0 310.48-29.5 311.98-29.5 311.98 0ZM319.48 0L317.98 0 317.98-29.5 319.48-29.5 319.48 0ZM322.48 0L320.98 0 320.98-29.5 322.48-29.5 322.48 0ZM325.48 0L323.98 0 323.98-29.5 325.48-29.5 325.48 0ZM331.48 0L326.98 0 326.98-29.5 331.48-29.5 331.48 0ZM334.48 0L332.98 0 332.98-29.5 334.48-29.5 334.48 0ZM344.98 0L340.48 0 340.48-29.5 344.98-29.5 344.98 0ZM316.18 15.95L316.18 7.45 317.48 7.45 317.48 8.95Q317.98 8.2 318.73 7.7L318.73 7.7Q319.48 7.25 320.33 7.25L320.33 7.25Q321.48 7.25 322.18 8.1L322.18 8.1Q322.83 9 322.83 10.8L322.83 10.8 322.83 15.95 321.53 15.95 321.53 10.85Q321.53 9.55 321.13 9L321.13 9Q320.68 8.4 319.98 8.4L319.98 8.4Q319.38 8.4 318.83 8.75L318.83 8.75Q318.23 9.1 317.83 9.7L317.83 9.7Q317.48 10.3 317.48 11.05L317.48 11.05 317.48 15.95 316.18 15.95ZM347.98 0L346.48 0 346.48-29.5 347.98-29.5 347.98 0ZM355.48 0L353.98 0 353.98-29.5 355.48-29.5 355.48 0ZM358.48 0L356.98 0 356.98-29.5 358.48-29.5 358.48 0ZM365.98 0L364.48 0 364.48-29.5 365.98-29.5 365.98 0ZM373.48 0L371.98 0 371.98-29.5 373.48-29.5 373.48 0ZM379.48 0L374.98 0 374.98-29.5 379.48-29.5 379.48 0ZM382.48 0L380.98 0 380.98-29.5 382.48-29.5 382.48 0ZM385.48 0L383.98 0 383.98-29.5 385.48-29.5 385.48 0ZM388.48 0L386.98 0 386.98-29.5 388.48-29.5 388.48 0ZM398.98 0L394.48 0 394.48-29.5 398.98-29.5 398.98 0ZM376.03 16L372.53 11.7 371.43 12.75 371.43 15.95 370.08 15.95 370.08 3.6 371.58 3.6 371.58 3.7Q371.48 3.85 371.43 3.95L371.43 3.95Q371.43 4.1 371.43 4.4L371.43 4.4 371.43 11.35 375.68 7.4Q376.13 7.5 376.68 7.5L376.68 7.5 377.13 7.5 373.58 10.9 377.73 15.95 376.03 16ZM401.98 0L400.48 0 400.48-29.5 401.98-29.5 401.98 0ZM409.48 0L407.98 0 407.98-29.5 409.48-29.5 409.48 0ZM416.98 0L415.48 0 415.48-29.5 416.98-29.5 416.98 0ZM419.98 0L418.48 0 418.48-29.5 419.98-29.5 419.98 0ZM427.48 0L425.98 0 425.98-29.5 427.48-29.5 427.48 0ZM430.48 0L428.98 0 428.98-29.5 430.48-29.5 430.48 0ZM436.48 0L431.98 0 431.98-29.5 436.48-29.5 436.48 0ZM439.48 0L437.98 0 437.98-29.5 439.48-29.5 439.48 0ZM442.48 0L440.98 0 440.98-29.5 442.48-29.5 442.48 0ZM452.98 0L448.48 0 448.48-29.5 452.98-29.5 452.98 0ZM426.53 19.05L425.88 18.5Q426.43 18.05 426.78 17.45L426.78 17.45Q427.13 16.9 427.13 16.55L427.13 16.55Q427.13 16.4 427.03 16.3L427.03 16.3Q426.93 16.15 426.68 15.95L426.68 15.95Q426.43 15.7 426.28 15.55L426.28 15.55Q426.18 15.35 426.18 15.15L426.18 15.15Q426.18 14.65 426.48 14.35L426.48 14.35Q426.78 14.05 427.23 14.05L427.23 14.05Q427.78 14.05 428.13 14.45L428.13 14.45Q428.53 14.9 428.53 15.6L428.53 15.6Q428.53 17.05 426.53 19.05L426.53 19.05ZM455.98 0L454.48 0 454.48-29.5 455.98-29.5 455.98 0ZM466.48 0L461.98 0 461.98-29.5 466.48-29.5 466.48 0ZM469.48 0L467.98 0 467.98-29.5 469.48-29.5 469.48 0ZM475.48 0L470.98 0 470.98-29.5 475.48-29.5 475.48 0ZM478.48 0L476.98 0 476.98-29.5 478.48-29.5 478.48 0ZM484.47 0L479.97 0 479.97-29.5 484.47-29.5 484.47 0ZM491.97 0L490.47 0 490.47-29.5 491.97-29.5 491.97 0ZM497.97 0L493.47 0 493.47-29.5 497.97-29.5 497.97 0ZM500.97 0L499.47 0 499.47-29.5 500.97-29.5 500.97 0ZM503.97 0L502.47 0 502.47-29.5 503.97-29.5 503.97 0ZM492.17 15.95L492.17 11.4 488.57 4.35 490.07 4.35 492.92 10 495.47 4.35 496.87 4.35 493.57 11.4 493.57 15.95 492.17 15.95ZM506.97 0L505.47 0 505.47-29.5 506.97-29.5 506.97 0ZM514.47 0L512.97 0 512.97-29.5 514.47-29.5 514.47 0ZM517.47 0L515.97 0 515.97-29.5 517.47-29.5 517.47 0ZM524.97 0L523.47 0 523.47-29.5 524.97-29.5 524.97 0ZM532.47 0L530.97 0 530.97-29.5 532.47-29.5 532.47 0ZM538.47 0L533.97 0 533.97-29.5 538.47-29.5 538.47 0ZM541.47 0L539.97 0 539.97-29.5 541.47-29.5 541.47 0ZM547.47 0L542.97 0 542.97-29.5 547.47-29.5 547.47 0ZM550.47 0L548.97 0 548.97-29.5 550.47-29.5 550.47 0ZM557.97 0L556.47 0 556.47-29.5 557.97-29.5 557.97 0ZM532.47 16.1L532.47 16.1Q531.32 16.1 530.42 15.55L530.42 15.55Q529.57 15 529.07 14L529.07 14Q528.52 13 528.52 11.7L528.52 11.7Q528.52 10.4 529.07 9.4L529.07 9.4Q529.57 8.4 530.42 7.85L530.42 7.85Q531.32 7.25 532.47 7.25L532.47 7.25Q533.62 7.25 534.47 7.85L534.47 7.85Q535.37 8.4 535.87 9.4L535.87 9.4Q536.37 10.4 536.37 11.7L536.37 11.7Q536.37 13 535.87 14L535.87 14Q535.37 15 534.47 15.55L534.47 15.55Q533.62 16.1 532.47 16.1ZM532.47 15L532.47 15Q533.17 15 533.77 14.55L533.77 14.55Q534.32 14.15 534.67 13.4L534.67 13.4Q534.97 12.6 534.97 11.65L534.97 11.65Q534.97 10.2 534.27 9.3L534.27 9.3Q533.57 8.4 532.47 8.4L532.47 8.4Q531.37 8.4 530.67 9.3L530.67 9.3Q529.97 10.2 529.97 11.65L529.97 11.65Q529.97 12.6 530.27 13.4L530.27 13.4Q530.62 14.15 531.17 14.55L531.17 14.55Q531.72 15 532.47 15ZM560.97 0L559.47 0 559.47-29.5 560.97-29.5 560.97 0ZM568.47 0L566.97 0 566.97-29.5 568.47-29.5 568.47 0ZM571.47 0L569.97 0 569.97-29.5 571.47-29.5 571.47 0ZM578.97 0L577.47 0 577.47-29.5 578.97-29.5 578.97 0ZM586.47 0L584.97 0 584.97-29.5 586.47-29.5 586.47 0ZM592.47 0L587.97 0 587.97-29.5 592.47-29.5 592.47 0ZM599.97 0L598.47 0 598.47-29.5 599.97-29.5 599.97 0ZM602.97 0L601.47 0 601.47-29.5 602.97-29.5 602.97 0ZM605.97 0L604.47 0 604.47-29.5 605.97-29.5 605.97 0ZM611.97 0L607.47 0 607.47-29.5 611.97-29.5 611.97 0ZM585.92 16.15L585.92 16.15Q584.57 16.15 583.77 15.15L583.77 15.15Q582.97 14.15 583.02 12.2L583.02 12.2 583.02 7.45 584.32 7.45 584.32 12.2Q584.32 13.7 584.87 14.4L584.87 14.4Q585.37 15.1 586.27 15.1L586.27 15.1Q587.22 15.1 587.87 14.3L587.87 14.3Q588.57 13.55 588.57 12.15L588.57 12.15 588.57 7.45 589.87 7.45 589.87 14.65Q589.87 15.1 589.87 15.35L589.87 15.35Q589.92 15.65 590.02 15.95L590.02 15.95 588.77 15.95Q588.62 15.65 588.62 15.35L588.62 15.35Q588.57 15.1 588.57 14.65L588.57 14.65Q588.17 15.35 587.47 15.75L587.47 15.75Q586.77 16.15 585.92 16.15ZM614.96 0L613.46 0 613.46-29.5 614.96-29.5 614.96 0ZM622.46 0L620.96 0 620.96-29.5 622.46-29.5 622.46 0ZM625.46 0L623.96 0 623.96-29.5 625.46-29.5 625.46 0ZM632.96 0L631.46 0 631.46-29.5 632.96-29.5 632.96 0ZM640.46 0L638.96 0 638.96-29.5 640.46-29.5 640.46 0ZM646.46 0L641.96 0 641.96-29.5 646.46-29.5 646.46 0ZM649.46 0L647.96 0 647.96-29.5 649.46-29.5 649.46 0ZM652.46 0L650.96 0 650.96-29.5 652.46-29.5 652.46 0ZM658.46 0L653.96 0 653.96-29.5 658.46-29.5 658.46 0ZM665.96 0L664.46 0 664.46-29.5 665.96-29.5 665.96 0ZM642.06 7.25L642.06 7.25Q643.41 7.25 644.31 8.2L644.31 8.2 643.71 9.2 643.66 9.4 643.51 9.3Q643.46 9.1 643.41 9L643.41 9Q643.31 8.85 643.06 8.7L643.06 8.7Q642.61 8.4 641.96 8.4L641.96 8.4Q641.31 8.4 640.71 8.75L640.71 8.75Q640.11 9.05 639.76 9.75L639.76 9.75Q639.36 10.45 639.36 11.45L639.36 11.45 639.36 15.95 638.01 15.95 638.01 7.45 639.41 7.45 639.36 9Q639.71 8.2 640.46 7.7L640.46 7.7Q641.21 7.25 642.06 7.25ZM668.96 0L667.46 0 667.46-29.5 668.96-29.5 668.96 0ZM679.46 0L674.96 0 674.96-29.5 679.46-29.5 679.46 0ZM682.46 0L680.96 0 680.96-29.5 682.46-29.5 682.46 0ZM688.46 0L683.96 0 683.96-29.5 688.46-29.5 688.46 0ZM691.46 0L689.96 0 689.96-29.5 691.46-29.5 691.46 0ZM697.46 0L692.96 0 692.96-29.5 697.46-29.5 697.46 0ZM707.96 0L703.46 0 703.46-29.5 707.96-29.5 707.96 0ZM710.96 0L709.46 0 709.46-29.5 710.96-29.5 710.96 0ZM713.96 0L712.46 0 712.46-29.5 713.96-29.5 713.96 0ZM716.96 0L715.46 0 715.46-29.5 716.96-29.5 716.96 0ZM703.21 15.95L701.36 4.35 702.56 4.35 703.81 12.2 705.71 5.2 706.11 5.2 707.96 12.25 709.01 4.35 710.11 4.35 708.31 15.95 707.81 15.95 705.81 8.4 703.76 15.95 703.21 15.95ZM719.96 0L718.46 0 718.46-29.5 719.96-29.5 719.96 0ZM727.46 0L725.96 0 725.96-29.5 727.46-29.5 727.46 0ZM730.46 0L728.96 0 728.96-29.5 730.46-29.5 730.46 0ZM737.96 0L736.46 0 736.46-29.5 737.96-29.5 737.96 0ZM745.46 0L743.96 0 743.96-29.5 745.46-29.5 745.46 0ZM751.46 0L746.96 0 746.96-29.5 751.46-29.5 751.46 0ZM754.46 0L752.96 0 752.96-29.5 754.46-29.5 754.46 0ZM757.46 0L755.96 0 755.96-29.5 757.46-29.5 757.46 0ZM764.96 0L763.46 0 763.46-29.5 764.96-29.5 764.96 0ZM770.96 0L766.46 0 766.46-29.5 770.96-29.5 770.96 0ZM745.36 7.25L745.36 7.25Q747.16 7.25 748.11 8.2L748.11 8.2Q749.06 9.15 749.06 11.45L749.06 11.45 749.06 15.95 747.61 15.95 747.61 14.65Q746.86 16.15 744.71 16.15L744.71 16.15Q743.31 16.15 742.51 15.5L742.51 15.5Q741.71 14.85 741.71 13.8L741.71 13.8Q741.71 12.9 742.31 12.25L742.31 12.25Q742.86 11.6 743.86 11.2L743.86 11.2Q744.81 10.85 746.01 10.85L746.01 10.85Q747.06 10.85 747.91 10.95L747.91 10.95Q747.81 9.55 747.16 8.95L747.16 8.95Q746.51 8.35 745.26 8.35L745.26 8.35Q744.61 8.35 744.06 8.6L744.06 8.6Q743.46 8.85 742.96 9.3L742.96 9.3 742.31 8.45Q743.51 7.25 745.36 7.25ZM744.86 15.15L744.86 15.15Q746.26 15.15 747.06 14.3L747.06 14.3Q747.86 13.5 747.91 12L747.91 12Q747.06 11.85 746.11 11.85L746.11 11.85Q744.71 11.85 743.86 12.35L743.86 12.35Q743.06 12.8 743.06 13.75L743.06 13.75Q743.06 15.15 744.86 15.15ZM773.95 0L772.45 0 772.45-29.5 773.95-29.5 773.95 0ZM781.45 0L779.95 0 779.95-29.5 781.45-29.5 781.45 0ZM784.45 0L782.95 0 782.95-29.5 784.45-29.5 784.45 0ZM791.95 0L790.45 0 790.45-29.5 791.95-29.5 791.95 0ZM799.45 0L797.95 0 797.95-29.5 799.45-29.5 799.45 0ZM805.45 0L800.95 0 800.95-29.5 805.45-29.5 805.45 0ZM812.95 0L811.45 0 811.45-29.5 812.95-29.5 812.95 0ZM818.95 0L814.45 0 814.45-29.5 818.95-29.5 818.95 0ZM821.95 0L820.45 0 820.45-29.5 821.95-29.5 821.95 0ZM824.95 0L823.45 0 823.45-29.5 824.95-29.5 824.95 0ZM801.7 7.45L803.05 7.45Q802.9 8.2 802.7 8.95L802.7 8.95Q802.45 9.7 802.05 10.95L802.05 10.95 799.9 16.9Q799.5 18.1 798.8 18.65L798.8 18.65Q798.1 19.2 797.15 19.2L797.15 19.2Q795.95 19.2 795.2 18.45L795.2 18.45 795.8 17.55 795.9 17.4 796 17.45Q796.05 17.65 796.15 17.75L796.15 17.75Q796.25 17.9 796.5 18L796.5 18Q796.85 18.1 797.25 18.1L797.25 18.1Q797.9 18.1 798.35 17.6L798.35 17.6Q798.75 17.1 799.15 16L799.15 16 795.65 7.45 797.05 7.45 799.7 14.25 800.8 10.85Q801.2 9.55 801.4 8.9L801.4 8.9Q801.6 8.2 801.7 7.45L801.7 7.45ZM827.95 0L826.45 0 826.45-29.5 827.95-29.5 827.95 0ZM838.45 0L833.95 0 833.95-29.5 838.45-29.5 838.45 0ZM841.45 0L839.95 0 839.95-29.5 841.45-29.5 841.45 0ZM847.45 0L842.95 0 842.95-29.5 847.45-29.5 847.45 0ZM850.45 0L848.95 0 848.95-29.5 850.45-29.5 850.45 0ZM853.45 0L851.95 0 851.95-29.5 853.45-29.5 853.45 0ZM860.95 0L859.45 0 859.45-29.5 860.95-29.5 860.95 0ZM863.95 0L862.45 0 862.45-29.5 863.95-29.5 863.95 0ZM869.95 0L865.45 0 865.45-29.5 869.95-29.5 869.95 0ZM875.95 0L871.45 0 871.45-29.5 875.95-29.5 875.95 0ZM861.35 10.75L861.35 9.5 868.05 9.5 868.05 10.75 861.35 10.75ZM878.95 0L877.45 0 877.45-29.5 878.95-29.5 878.95 0ZM889.45 0L884.95 0 884.95-29.5 889.45-29.5 889.45 0ZM892.45 0L890.95 0 890.95-29.5 892.45-29.5 892.45 0ZM898.45 0L893.95 0 893.95-29.5 898.45-29.5 898.45 0ZM901.45 0L899.95 0 899.95-29.5 901.45-29.5 901.45 0ZM904.44 0L902.94 0 902.94-29.5 904.44-29.5 904.44 0ZM910.44 0L905.94 0 905.94-29.5 910.44-29.5 910.44 0ZM913.44 0L911.94 0 911.94-29.5 913.44-29.5 913.44 0ZM919.44 0L914.94 0 914.94-29.5 919.44-29.5 919.44 0ZM926.94 0L925.44 0 925.44-29.5 926.94-29.5 926.94 0ZM915.64 16.15L915.64 16.15Q913.39 16.15 911.99 14.65L911.99 14.65 912.69 13.5 912.74 13.35 912.89 13.4Q912.89 13.45 912.94 13.6L912.94 13.6Q912.94 13.7 913.04 13.85L913.04 13.85Q913.09 13.95 913.24 14.05L913.24 14.05Q914.29 14.95 915.84 14.95L915.84 14.95Q916.84 14.95 917.54 14.4L917.54 14.4Q918.24 13.8 918.24 13L918.24 13Q918.24 12.45 917.99 12.05L917.99 12.05Q917.79 11.7 917.24 11.35L917.24 11.35Q916.69 11 915.54 10.5L915.54 10.5Q913.84 9.85 913.09 9L913.09 9Q912.39 8.15 912.39 7.1L912.39 7.1Q912.39 5.8 913.34 5L913.34 5Q914.29 4.2 915.89 4.2L915.89 4.2Q916.84 4.2 917.69 4.6L917.69 4.6Q918.49 5 919.14 5.65L919.14 5.65 918.29 6.8 918.19 6.7Q918.19 6.65 918.14 6.55L918.14 6.55Q918.14 6.4 918.04 6.3L918.04 6.3Q917.99 6.15 917.84 6.05L917.84 6.05Q917.44 5.65 916.89 5.45L916.89 5.45Q916.39 5.3 915.69 5.3L915.69 5.3Q914.79 5.3 914.29 5.8L914.29 5.8Q913.74 6.3 913.74 7L913.74 7Q913.74 7.55 913.94 7.95L913.94 7.95Q914.19 8.35 914.79 8.7L914.79 8.7Q915.39 9.1 916.59 9.55L916.59 9.55Q918.24 10.25 918.89 10.95L918.89 10.95Q919.49 11.7 919.49 12.8L919.49 12.8Q919.49 13.65 919.09 14.4L919.09 14.4Q918.64 15.15 917.79 15.65L917.79 15.65Q916.89 16.15 915.64 16.15ZM929.94 0L928.44 0 928.44-29.5 929.94-29.5 929.94 0ZM937.44 0L935.94 0 935.94-29.5 937.44-29.5 937.44 0ZM940.44 0L938.94 0 938.94-29.5 940.44-29.5 940.44 0ZM947.94 0L946.44 0 946.44-29.5 947.94-29.5 947.94 0ZM955.44 0L953.94 0 953.94-29.5 955.44-29.5 955.44 0ZM961.44 0L956.94 0 956.94-29.5 961.44-29.5 961.44 0ZM971.94 0L967.44 0 967.44-29.5 971.94-29.5 971.94 0ZM974.94 0L973.44 0 973.44-29.5 974.94-29.5 974.94 0ZM977.94 0L976.44 0 976.44-29.5 977.94-29.5 977.94 0ZM980.94 0L979.44 0 979.44-29.5 980.94-29.5 980.94 0ZM952.79 15.95L951.09 7.45 952.24 7.45 953.64 14.3 955.09 8.25 955.89 8.25 957.69 14.25Q958.24 10.8 958.34 9.7L958.34 9.7Q958.49 8.6 958.49 7.75L958.49 7.75 958.49 7.45 959.74 7.45Q959.19 11.75 958.34 15.95L958.34 15.95 957.04 15.95 955.49 10.45 953.99 15.95 952.79 15.95ZM983.94 0L982.44 0 982.44-29.5 983.94-29.5 983.94 0ZM991.44 0L989.94 0 989.94-29.5 991.44-29.5 991.44 0ZM994.44 0L992.94 0 992.94-29.5 994.44-29.5 994.44 0ZM1001.94 0L1000.44 0 1000.44-29.5 1001.94-29.5 1001.94 0ZM1009.44 0L1007.94 0 1007.94-29.5 1009.44-29.5 1009.44 0ZM1012.44 0L1010.94 0 1010.94-29.5 1012.44-29.5 1012.44 0ZM1018.44 0L1013.94 0 1013.94-29.5 1018.44-29.5 1018.44 0ZM1021.44 0L1019.94 0 1019.94-29.5 1021.44-29.5 1021.44 0ZM1031.94 0L1027.44 0 1027.44-29.5 1031.94-29.5 1031.94 0ZM1034.94 0L1033.44 0 1033.44-29.5 1034.94-29.5 1034.94 0ZM1006.64 15.95L1006.64 14.85 1008.84 14.85 1008.84 8.55 1006.74 8.55 1006.74 7.45 1010.14 7.45 1010.14 14.85 1012.14 14.85 1012.14 15.95 1006.64 15.95ZM1009.44 5.65L1009.44 5.65Q1009.04 5.65 1008.74 5.4L1008.74 5.4Q1008.49 5.1 1008.49 4.7L1008.49 4.7Q1008.49 4.3 1008.74 4.05L1008.74 4.05Q1008.99 3.75 1009.44 3.75L1009.44 3.75Q1009.79 3.75 1010.09 4.05L1010.09 4.05Q1010.39 4.35 1010.39 4.7L1010.39 4.7Q1010.39 5.1 1010.09 5.4L1010.09 5.4Q1009.79 5.65 1009.44 5.65ZM1037.94 0L1036.44 0 1036.44-29.5 1037.94-29.5 1037.94 0ZM1045.44 0L1043.94 0 1043.94-29.5 1045.44-29.5 1045.44 0ZM1048.44 0L1046.94 0 1046.94-29.5 1048.44-29.5 1048.44 0ZM1055.94 0L1054.44 0 1054.44-29.5 1055.94-29.5 1055.94 0ZM1063.44 0L1061.94 0 1061.94-29.5 1063.44-29.5 1063.44 0ZM1066.44 0L1064.94 0 1064.94-29.5 1066.44-29.5 1066.44 0ZM1072.44 0L1067.94 0 1067.94-29.5 1072.44-29.5 1072.44 0ZM1078.44 0L1073.94 0 1073.94-29.5 1078.44-29.5 1078.44 0ZM1085.94 0L1084.44 0 1084.44-29.5 1085.94-29.5 1085.94 0ZM1088.94 0L1087.44 0 1087.44-29.5 1088.94-29.5 1088.94 0ZM1061.79 15.95L1061.79 8.5 1059.94 8.5 1059.94 7.45 1061.79 7.45 1061.79 6.75Q1061.79 5.1 1062.64 4.3L1062.64 4.3Q1063.49 3.5 1064.94 3.5L1064.94 3.5Q1065.74 3.5 1066.44 3.75L1066.44 3.75Q1067.14 4.05 1067.59 4.65L1067.59 4.65 1066.89 5.65 1066.74 5.8 1066.64 5.7Q1066.64 5.65 1066.64 5.55L1066.64 5.55Q1066.59 5.45 1066.54 5.3L1066.54 5.3Q1066.44 5.15 1066.29 5.05L1066.29 5.05Q1066.04 4.8 1065.74 4.65L1065.74 4.65Q1065.44 4.55 1064.94 4.55L1064.94 4.55Q1064.09 4.55 1063.59 5.1L1063.59 5.1Q1063.09 5.6 1063.09 6.75L1063.09 6.75 1063.09 7.45 1065.89 7.45 1065.89 8.5 1063.09 8.5 1063.09 15.95 1061.79 15.95ZM1091.93 0L1090.43 0 1090.43-29.5 1091.93-29.5 1091.93 0ZM1099.43 0L1097.93 0 1097.93-29.5 1099.43-29.5 1099.43 0ZM1102.43 0L1100.93 0 1100.93-29.5 1102.43-29.5 1102.43 0ZM1109.93 0L1108.43 0 1108.43-29.5 1109.93-29.5 1109.93 0ZM1117.43 0L1115.93 0 1115.93-29.5 1117.43-29.5 1117.43 0ZM1120.43 0L1118.93 0 1118.93-29.5 1120.43-29.5 1120.43 0ZM1123.43 0L1121.93 0 1121.93-29.5 1123.43-29.5 1123.43 0ZM1129.43 0L1124.93 0 1124.93-29.5 1129.43-29.5 1129.43 0ZM1135.43 0L1130.93 0 1130.93-29.5 1135.43-29.5 1135.43 0ZM1142.93 0L1141.43 0 1141.43-29.5 1142.93-29.5 1142.93 0ZM1120.63 14.1L1121.03 15.15Q1119.83 16.1 1118.33 16.1L1118.33 16.1Q1116.93 16.1 1116.33 15.25L1116.33 15.25Q1115.73 14.35 1115.73 12.45L1115.73 12.45Q1115.73 12.1 1115.78 11.35L1115.78 11.35 1115.98 8.55 1114.08 8.55 1114.08 7.45 1116.03 7.45 1116.18 5.2 1117.63 4.95 1117.83 4.95 1117.83 5.05Q1117.73 5.2 1117.68 5.35L1117.68 5.35Q1117.58 5.5 1117.58 5.75L1117.58 5.75 1117.38 7.45 1120.18 7.45 1120.18 8.55 1117.28 8.55 1117.13 11.45Q1117.08 12.2 1117.08 12.4L1117.08 12.4Q1117.08 13.9 1117.43 14.45L1117.43 14.45Q1117.78 14.95 1118.53 14.95L1118.53 14.95Q1119.08 14.95 1119.58 14.75L1119.58 14.75Q1120.03 14.55 1120.63 14.1L1120.63 14.1ZM1145.93 0L1144.43 0 1144.43-29.5 1145.93-29.5 1145.93 0ZM1153.43 0L1151.93 0 1151.93-29.5 1153.43-29.5 1153.43 0ZM1160.93 0L1159.43 0 1159.43-29.5 1160.93-29.5 1160.93 0ZM1163.93 0L1162.43 0 1162.43-29.5 1163.93-29.5 1163.93 0ZM1171.43 0L1169.93 0 1169.93-29.5 1171.43-29.5 1171.43 0ZM1174.43 0L1172.93 0 1172.93-29.5 1174.43-29.5 1174.43 0ZM1180.43 0L1175.93 0 1175.93-29.5 1180.43-29.5 1180.43 0ZM1183.43 0L1181.93 0 1181.93-29.5 1183.43-29.5 1183.43 0ZM1186.43 0L1184.93 0 1184.93-29.5 1186.43-29.5 1186.43 0ZM1196.93 0L1192.43 0 1192.43-29.5 1196.93-29.5 1196.93 0ZM1170.48 19.05L1169.83 18.5Q1170.38 18.05 1170.73 17.45L1170.73 17.45Q1171.08 16.9 1171.08 16.55L1171.08 16.55Q1171.08 16.4 1170.98 16.3L1170.98 16.3Q1170.88 16.15 1170.63 15.95L1170.63 15.95Q1170.38 15.7 1170.23 15.55L1170.23 15.55Q1170.13 15.35 1170.13 15.15L1170.13 15.15Q1170.13 14.65 1170.43 14.35L1170.43 14.35Q1170.73 14.05 1171.18 14.05L1171.18 14.05Q1171.73 14.05 1172.08 14.45L1172.08 14.45Q1172.48 14.9 1172.48 15.6L1172.48 15.6Q1172.48 17.05 1170.48 19.05L1170.48 19.05ZM1199.93 0L1198.43 0 1198.43-29.5 1199.93-29.5 1199.93 0ZM1210.43 0L1205.93 0 1205.93-29.5 1210.43-29.5 1210.43 0ZM1213.43 0L1211.93 0 1211.93-29.5 1213.43-29.5 1213.43 0ZM1219.43 0L1214.93 0 1214.93-29.5 1219.43-29.5 1219.43 0ZM1222.43 0L1220.93 0 1220.93-29.5 1222.43-29.5 1222.43 0ZM1225.43 0L1223.93 0 1223.93-29.5 1225.43-29.5 1225.43 0ZM1231.43 0L1226.93 0 1226.93-29.5 1231.43-29.5 1231.43 0ZM1234.43 0L1232.93 0 1232.93-29.5 1234.43-29.5 1234.43 0ZM1240.43 0L1235.93 0 1235.93-29.5 1240.43-29.5 1240.43 0ZM1247.93 0L1246.43 0 1246.43-29.5 1247.93-29.5 1247.93 0ZM1236.63 16.15L1236.63 16.15Q1234.38 16.15 1232.98 14.65L1232.98 14.65 1233.68 13.5 1233.73 13.35 1233.88 13.4Q1233.88 13.45 1233.93 13.6L1233.93 13.6Q1233.93 13.7 1234.03 13.85L1234.03 13.85Q1234.08 13.95 1234.23 14.05L1234.23 14.05Q1235.28 14.95 1236.83 14.95L1236.83 14.95Q1237.83 14.95 1238.53 14.4L1238.53 14.4Q1239.23 13.8 1239.23 13L1239.23 13Q1239.23 12.45 1238.98 12.05L1238.98 12.05Q1238.78 11.7 1238.23 11.35L1238.23 11.35Q1237.68 11 1236.53 10.5L1236.53 10.5Q1234.83 9.85 1234.08 9L1234.08 9Q1233.38 8.15 1233.38 7.1L1233.38 7.1Q1233.38 5.8 1234.33 5L1234.33 5Q1235.28 4.2 1236.88 4.2L1236.88 4.2Q1237.83 4.2 1238.68 4.6L1238.68 4.6Q1239.48 5 1240.13 5.65L1240.13 5.65 1239.28 6.8 1239.18 6.7Q1239.18 6.65 1239.13 6.55L1239.13 6.55Q1239.13 6.4 1239.03 6.3L1239.03 6.3Q1238.98 6.15 1238.83 6.05L1238.83 6.05Q1238.43 5.65 1237.88 5.45L1237.88 5.45Q1237.38 5.3 1236.68 5.3L1236.68 5.3Q1235.78 5.3 1235.28 5.8L1235.28 5.8Q1234.73 6.3 1234.73 7L1234.73 7Q1234.73 7.55 1234.93 7.95L1234.93 7.95Q1235.18 8.35 1235.78 8.7L1235.78 8.7Q1236.38 9.1 1237.58 9.55L1237.58 9.55Q1239.23 10.25 1239.88 10.95L1239.88 10.95Q1240.48 11.7 1240.48 12.8L1240.48 12.8Q1240.48 13.65 1240.08 14.4L1240.08 14.4Q1239.63 15.15 1238.78 15.65L1238.78 15.65Q1237.88 16.15 1236.63 16.15ZM1250.92 0L1249.42 0 1249.42-29.5 1250.92-29.5 1250.92 0ZM1258.42 0L1256.92 0 1256.92-29.5 1258.42-29.5 1258.42 0ZM1261.42 0L1259.92 0 1259.92-29.5 1261.42-29.5 1261.42 0ZM1268.92 0L1267.42 0 1267.42-29.5 1268.92-29.5 1268.92 0ZM1276.42 0L1274.92 0 1274.92-29.5 1276.42-29.5 1276.42 0ZM1279.42 0L1277.92 0 1277.92-29.5 1279.42-29.5 1279.42 0ZM1285.42 0L1280.92 0 1280.92-29.5 1285.42-29.5 1285.42 0ZM1288.42 0L1286.92 0 1286.92-29.5 1288.42-29.5 1288.42 0ZM1298.92 0L1294.42 0 1294.42-29.5 1298.92-29.5 1298.92 0ZM1301.92 0L1300.42 0 1300.42-29.5 1301.92-29.5 1301.92 0ZM1273.62 15.95L1273.62 14.85 1275.82 14.85 1275.82 8.55 1273.72 8.55 1273.72 7.45 1277.12 7.45 1277.12 14.85 1279.12 14.85 1279.12 15.95 1273.62 15.95ZM1276.42 5.65L1276.42 5.65Q1276.02 5.65 1275.72 5.4L1275.72 5.4Q1275.47 5.1 1275.47 4.7L1275.47 4.7Q1275.47 4.3 1275.72 4.05L1275.72 4.05Q1275.97 3.75 1276.42 3.75L1276.42 3.75Q1276.77 3.75 1277.07 4.05L1277.07 4.05Q1277.37 4.35 1277.37 4.7L1277.37 4.7Q1277.37 5.1 1277.07 5.4L1277.07 5.4Q1276.77 5.65 1276.42 5.65ZM1304.92 0L1303.42 0 1303.42-29.5 1304.92-29.5 1304.92 0ZM1312.42 0L1310.92 0 1310.92-29.5 1312.42-29.5 1312.42 0ZM1315.42 0L1313.92 0 1313.92-29.5 1315.42-29.5 1315.42 0ZM1322.92 0L1321.42 0 1321.42-29.5 1322.92-29.5 1322.92 0ZM1330.42 0L1328.92 0 1328.92-29.5 1330.42-29.5 1330.42 0ZM1336.42 0L1331.92 0 1331.92-29.5 1336.42-29.5 1336.42 0ZM1342.42 0L1337.92 0 1337.92-29.5 1342.42-29.5 1342.42 0ZM1345.42 0L1343.92 0 1343.92-29.5 1345.42-29.5 1345.42 0ZM1348.42 0L1346.92 0 1346.92-29.5 1348.42-29.5 1348.42 0ZM1355.92 0L1354.42 0 1354.42-29.5 1355.92-29.5 1355.92 0ZM1326.47 15.95L1326.47 7.45 1327.72 7.45 1327.72 8.3Q1328.02 7.85 1328.47 7.55L1328.47 7.55Q1328.92 7.25 1329.42 7.25L1329.42 7.25Q1329.97 7.25 1330.42 7.6L1330.42 7.6Q1330.82 7.95 1330.92 8.5L1330.92 8.5Q1331.17 7.95 1331.72 7.6L1331.72 7.6Q1332.22 7.25 1332.87 7.25L1332.87 7.25Q1333.67 7.25 1334.12 7.85L1334.12 7.85Q1334.52 8.45 1334.47 9.45L1334.47 9.45 1334.47 15.95 1333.27 15.95 1333.27 9.95Q1333.27 8.85 1333.07 8.55L1333.07 8.55Q1332.87 8.25 1332.47 8.25L1332.47 8.25Q1332.12 8.25 1331.82 8.55L1331.82 8.55Q1331.52 8.85 1331.32 9.35L1331.32 9.35Q1331.12 9.85 1331.12 10.35L1331.12 10.35 1331.12 15.95 1329.87 15.95 1329.87 10.05Q1329.87 9 1329.67 8.65L1329.67 8.65Q1329.47 8.25 1328.92 8.25L1328.92 8.25Q1328.67 8.25 1328.37 8.5L1328.37 8.5Q1328.07 8.75 1327.87 9.25L1327.87 9.25Q1327.72 9.7 1327.72 10.3L1327.72 10.3 1327.72 15.95 1326.47 15.95ZM1358.92 0L1357.42 0 1357.42-29.5 1358.92-29.5 1358.92 0ZM1366.42 0L1364.92 0 1364.92-29.5 1366.42-29.5 1366.42 0ZM1369.42 0L1367.92 0 1367.92-29.5 1369.42-29.5 1369.42 0ZM1376.92 0L1375.42 0 1375.42-29.5 1376.92-29.5 1376.92 0ZM1384.42 0L1382.92 0 1382.92-29.5 1384.42-29.5 1384.42 0ZM1387.42 0L1385.92 0 1385.92-29.5 1387.42-29.5 1387.42 0ZM1393.42 0L1388.92 0 1388.92-29.5 1393.42-29.5 1393.42 0ZM1399.42 0L1394.92 0 1394.92-29.5 1399.42-29.5 1399.42 0ZM1402.42 0L1400.92 0 1400.92-29.5 1402.42-29.5 1402.42 0ZM1409.92 0L1408.42 0 1408.42-29.5 1409.92-29.5 1409.92 0ZM1380.87 19.05L1380.87 7.45 1382.22 7.45 1382.22 9.15Q1382.52 8.2 1383.22 7.75L1383.22 7.75Q1383.92 7.25 1384.82 7.25L1384.82 7.25Q1385.77 7.25 1386.62 7.75L1386.62 7.75Q1387.42 8.25 1387.87 9.25L1387.87 9.25Q1388.37 10.2 1388.37 11.65L1388.37 11.65Q1388.37 13.05 1387.87 14.1L1387.87 14.1Q1387.37 15.15 1386.57 15.65L1386.57 15.65Q1385.72 16.15 1384.77 16.15L1384.77 16.15Q1384.02 16.15 1383.37 15.8L1383.37 15.8Q1382.67 15.45 1382.27 14.85L1382.27 14.85 1382.27 19.05 1380.87 19.05ZM1384.57 15L1384.57 15Q1385.57 15 1386.27 14.2L1386.27 14.2Q1386.97 13.45 1386.97 11.7L1386.97 11.7Q1386.97 10.1 1386.37 9.25L1386.37 9.25Q1385.77 8.4 1384.62 8.4L1384.62 8.4Q1383.57 8.4 1382.92 9.3L1382.92 9.3Q1382.22 10.2 1382.22 12L1382.22 12Q1382.27 13.45 1382.87 14.2L1382.87 14.2Q1383.52 15 1384.57 15ZM1412.92 0L1411.42 0 1411.42-29.5 1412.92-29.5 1412.92 0ZM1420.42 0L1418.92 0 1418.92-29.5 1420.42-29.5 1420.42 0ZM1423.42 0L1421.92 0 1421.92-29.5 1423.42-29.5 1423.42 0ZM1430.92 0L1429.42 0 1429.42-29.5 1430.92-29.5 1430.92 0ZM1438.42 0L1436.92 0 1436.92-29.5 1438.42-29.5 1438.42 0ZM1441.42 0L1439.92 0 1439.92-29.5 1441.42-29.5 1441.42 0ZM1447.42 0L1442.92 0 1442.92-29.5 1447.42-29.5 1447.42 0ZM1450.42 0L1448.92 0 1448.92-29.5 1450.42-29.5 1450.42 0ZM1453.42 0L1451.92 0 1451.92-29.5 1453.42-29.5 1453.42 0ZM1463.92 0L1459.42 0 1459.42-29.5 1463.92-29.5 1463.92 0ZM1435.22 15.95L1435.22 14.85 1437.77 14.85 1437.77 4.65 1435.37 4.65 1435.37 3.6 1439.12 3.6 1439.12 14.85 1441.62 14.85 1441.62 15.95 1435.22 15.95ZM1466.91 0L1465.41 0 1465.41-29.5 1466.91-29.5 1466.91 0ZM1474.41 0L1472.91 0 1472.91-29.5 1474.41-29.5 1474.41 0ZM1477.41 0L1475.91 0 1475.91-29.5 1477.41-29.5 1477.41 0ZM1484.91 0L1483.41 0 1483.41-29.5 1484.91-29.5 1484.91 0ZM1492.41 0L1490.91 0 1490.91-29.5 1492.41-29.5 1492.41 0ZM1498.41 0L1493.91 0 1493.91-29.5 1498.41-29.5 1498.41 0ZM1501.41 0L1499.91 0 1499.91-29.5 1501.41-29.5 1501.41 0ZM1507.41 0L1502.91 0 1502.91-29.5 1507.41-29.5 1507.41 0ZM1514.91 0L1513.41 0 1513.41-29.5 1514.91-29.5 1514.91 0ZM1517.91 0L1516.41 0 1516.41-29.5 1517.91-29.5 1517.91 0ZM1492.81 16.15L1492.81 16.15Q1490.91 16.15 1489.81 15L1489.81 15Q1488.66 13.85 1488.66 11.75L1488.66 11.75Q1488.66 10.35 1489.21 9.3L1489.21 9.3Q1489.71 8.3 1490.61 7.8L1490.61 7.8Q1491.46 7.25 1492.56 7.25L1492.56 7.25Q1494.11 7.25 1495.06 8.25L1495.06 8.25Q1496.01 9.3 1496.01 11.3L1496.01 11.3Q1496.01 11.5 1496.01 11.9L1496.01 11.9 1489.96 11.9Q1490.01 13.45 1490.81 14.25L1490.81 14.25Q1491.61 15.05 1492.86 15.05L1492.86 15.05Q1494.21 15.05 1495.06 14.1L1495.06 14.1 1495.81 14.85Q1494.71 16.15 1492.81 16.15ZM1490.01 10.85L1494.66 10.85Q1494.66 9.65 1494.06 8.95L1494.06 8.95Q1493.46 8.25 1492.46 8.25L1492.46 8.25Q1491.56 8.25 1490.86 8.9L1490.86 8.9Q1490.16 9.55 1490.01 10.85L1490.01 10.85ZM1520.91 0L1519.41 0 1519.41-29.5 1520.91-29.5 1520.91 0ZM1528.41 0L1526.91 0 1526.91-29.5 1528.41-29.5 1528.41 0ZM1535.91 0L1534.41 0 1534.41-29.5 1535.91-29.5 1535.91 0ZM1538.91 0L1537.41 0 1537.41-29.5 1538.91-29.5 1538.91 0ZM1546.41 0L1544.91 0 1544.91-29.5 1546.41-29.5 1546.41 0ZM1549.41 0L1547.91 0 1547.91-29.5 1549.41-29.5 1549.41 0ZM1555.41 0L1550.91 0 1550.91-29.5 1555.41-29.5 1555.41 0ZM1558.41 0L1556.91 0 1556.91-29.5 1558.41-29.5 1558.41 0ZM1561.41 0L1559.91 0 1559.91-29.5 1561.41-29.5 1561.41 0ZM1571.91 0L1567.41 0 1567.41-29.5 1571.91-29.5 1571.91 0ZM1545.46 19.05L1544.81 18.5Q1545.36 18.05 1545.71 17.45L1545.71 17.45Q1546.06 16.9 1546.06 16.55L1546.06 16.55Q1546.06 16.4 1545.96 16.3L1545.96 16.3Q1545.86 16.15 1545.61 15.95L1545.61 15.95Q1545.36 15.7 1545.21 15.55L1545.21 15.55Q1545.11 15.35 1545.11 15.15L1545.11 15.15Q1545.11 14.65 1545.41 14.35L1545.41 14.35Q1545.71 14.05 1546.16 14.05L1546.16 14.05Q1546.71 14.05 1547.06 14.45L1547.06 14.45Q1547.46 14.9 1547.46 15.6L1547.46 15.6Q1547.46 17.05 1545.46 19.05L1545.46 19.05ZM1574.91 0L1573.41 0 1573.41-29.5 1574.91-29.5 1574.91 0ZM1585.41 0L1580.91 0 1580.91-29.5 1585.41-29.5 1585.41 0ZM1588.41 0L1586.91 0 1586.91-29.5 1588.41-29.5 1588.41 0ZM1594.41 0L1589.91 0 1589.91-29.5 1594.41-29.5 1594.41 0ZM1597.41 0L1595.91 0 1595.91-29.5 1597.41-29.5 1597.41 0ZM1600.41 0L1598.91 0 1598.91-29.5 1600.41-29.5 1600.41 0ZM1606.41 0L1601.91 0 1601.91-29.5 1606.41-29.5 1606.41 0ZM1609.41 0L1607.91 0 1607.91-29.5 1609.41-29.5 1609.41 0ZM1615.41 0L1610.91 0 1610.91-29.5 1615.41-29.5 1615.41 0ZM1622.91 0L1621.41 0 1621.41-29.5 1622.91-29.5 1622.91 0ZM1611.61 16.15L1611.61 16.15Q1609.36 16.15 1607.96 14.65L1607.96 14.65 1608.66 13.5 1608.71 13.35 1608.86 13.4Q1608.86 13.45 1608.91 13.6L1608.91 13.6Q1608.91 13.7 1609.01 13.85L1609.01 13.85Q1609.06 13.95 1609.21 14.05L1609.21 14.05Q1610.26 14.95 1611.81 14.95L1611.81 14.95Q1612.81 14.95 1613.51 14.4L1613.51 14.4Q1614.21 13.8 1614.21 13L1614.21 13Q1614.21 12.45 1613.96 12.05L1613.96 12.05Q1613.76 11.7 1613.21 11.35L1613.21 11.35Q1612.66 11 1611.51 10.5L1611.51 10.5Q1609.81 9.85 1609.06 9L1609.06 9Q1608.36 8.15 1608.36 7.1L1608.36 7.1Q1608.36 5.8 1609.31 5L1609.31 5Q1610.26 4.2 1611.86 4.2L1611.86 4.2Q1612.81 4.2 1613.66 4.6L1613.66 4.6Q1614.46 5 1615.11 5.65L1615.11 5.65 1614.26 6.8 1614.16 6.7Q1614.16 6.65 1614.11 6.55L1614.11 6.55Q1614.11 6.4 1614.01 6.3L1614.01 6.3Q1613.96 6.15 1613.81 6.05L1613.81 6.05Q1613.41 5.65 1612.86 5.45L1612.86 5.45Q1612.36 5.3 1611.66 5.3L1611.66 5.3Q1610.76 5.3 1610.26 5.8L1610.26 5.8Q1609.71 6.3 1609.71 7L1609.71 7Q1609.71 7.55 1609.91 7.95L1609.91 7.95Q1610.16 8.35 1610.76 8.7L1610.76 8.7Q1611.36 9.1 1612.56 9.55L1612.56 9.55Q1614.21 10.25 1614.86 10.95L1614.86 10.95Q1615.46 11.7 1615.46 12.8L1615.46 12.8Q1615.46 13.65 1615.06 14.4L1615.06 14.4Q1614.61 15.15 1613.76 15.65L1613.76 15.65Q1612.86 16.15 1611.61 16.15ZM1625.9 0L1624.4 0 1624.4-29.5 1625.9-29.5 1625.9 0ZM1633.4 0L1631.9 0 1631.9-29.5 1633.4-29.5 1633.4 0ZM1636.4 0L1634.9 0 1634.9-29.5 1636.4-29.5 1636.4 0ZM1643.9 0L1642.4 0 1642.4-29.5 1643.9-29.5 1643.9 0ZM1651.4 0L1649.9 0 1649.9-29.5 1651.4-29.5 1651.4 0ZM1657.4 0L1652.9 0 1652.9-29.5 1657.4-29.5 1657.4 0ZM1660.4 0L1658.9 0 1658.9-29.5 1660.4-29.5 1660.4 0ZM1666.4 0L1661.9 0 1661.9-29.5 1666.4-29.5 1666.4 0ZM1673.9 0L1672.4 0 1672.4-29.5 1673.9-29.5 1673.9 0ZM1676.9 0L1675.4 0 1675.4-29.5 1676.9-29.5 1676.9 0ZM1651.8 16.15L1651.8 16.15Q1649.9 16.15 1648.8 15L1648.8 15Q1647.65 13.85 1647.65 11.75L1647.65 11.75Q1647.65 10.35 1648.2 9.3L1648.2 9.3Q1648.7 8.3 1649.6 7.8L1649.6 7.8Q1650.45 7.25 1651.55 7.25L1651.55 7.25Q1653.1 7.25 1654.05 8.25L1654.05 8.25Q1655 9.3 1655 11.3L1655 11.3Q1655 11.5 1655 11.9L1655 11.9 1648.95 11.9Q1649 13.45 1649.8 14.25L1649.8 14.25Q1650.6 15.05 1651.85 15.05L1651.85 15.05Q1653.2 15.05 1654.05 14.1L1654.05 14.1 1654.8 14.85Q1653.7 16.15 1651.8 16.15ZM1649 10.85L1653.65 10.85Q1653.65 9.65 1653.05 8.95L1653.05 8.95Q1652.45 8.25 1651.45 8.25L1651.45 8.25Q1650.55 8.25 1649.85 8.9L1649.85 8.9Q1649.15 9.55 1649 10.85L1649 10.85ZM1679.9 0L1678.4 0 1678.4-29.5 1679.9-29.5 1679.9 0ZM1687.4 0L1685.9 0 1685.9-29.5 1687.4-29.5 1687.4 0ZM1690.4 0L1688.9 0 1688.9-29.5 1690.4-29.5 1690.4 0ZM1697.9 0L1696.4 0 1696.4-29.5 1697.9-29.5 1697.9 0ZM1705.4 0L1703.9 0 1703.9-29.5 1705.4-29.5 1705.4 0ZM1711.4 0L1706.9 0 1706.9-29.5 1711.4-29.5 1711.4 0ZM1717.4 0L1712.9 0 1712.9-29.5 1717.4-29.5 1717.4 0ZM1720.4 0L1718.9 0 1718.9-29.5 1720.4-29.5 1720.4 0ZM1727.9 0L1726.4 0 1726.4-29.5 1727.9-29.5 1727.9 0ZM1730.9 0L1729.4 0 1729.4-29.5 1730.9-29.5 1730.9 0ZM1706.05 16.15L1706.05 16.15Q1704.8 16.15 1703.85 15.6L1703.85 15.6Q1702.9 15 1702.35 14L1702.35 14Q1701.8 13 1701.8 11.7L1701.8 11.7Q1701.8 10.45 1702.35 9.45L1702.35 9.45Q1702.9 8.45 1703.85 7.85L1703.85 7.85Q1704.8 7.3 1706.05 7.3L1706.05 7.3Q1707.05 7.3 1707.9 7.7L1707.9 7.7Q1708.7 8.1 1709.25 8.85L1709.25 8.85 1708.4 9.7 1708.3 9.8 1708.2 9.7Q1708.2 9.55 1708.1 9.4L1708.1 9.4Q1708.05 9.3 1707.85 9.1L1707.85 9.1Q1707.45 8.75 1707 8.6L1707 8.6Q1706.5 8.4 1705.9 8.4L1705.9 8.4Q1705.15 8.4 1704.55 8.8L1704.55 8.8Q1703.9 9.2 1703.55 9.95L1703.55 9.95Q1703.15 10.65 1703.15 11.6L1703.15 11.6Q1703.15 12.55 1703.55 13.35L1703.55 13.35Q1703.95 14.1 1704.6 14.5L1704.6 14.5Q1705.3 14.95 1706.1 14.95L1706.1 14.95Q1707.4 14.95 1708.35 13.9L1708.35 13.9 1709.1 14.8Q1707.85 16.15 1706.05 16.15ZM1733.9 0L1732.4 0 1732.4-29.5 1733.9-29.5 1733.9 0ZM1741.4 0L1739.9 0 1739.9-29.5 1741.4-29.5 1741.4 0ZM1744.4 0L1742.9 0 1742.9-29.5 1744.4-29.5 1744.4 0ZM1751.9 0L1750.4 0 1750.4-29.5 1751.9-29.5 1751.9 0ZM1759.4 0L1757.9 0 1757.9-29.5 1759.4-29.5 1759.4 0ZM1765.4 0L1760.9 0 1760.9-29.5 1765.4-29.5 1765.4 0ZM1772.9 0L1771.4 0 1771.4-29.5 1772.9-29.5 1772.9 0ZM1775.9 0L1774.4 0 1774.4-29.5 1775.9-29.5 1775.9 0ZM1778.9 0L1777.4 0 1777.4-29.5 1778.9-29.5 1778.9 0ZM1784.9 0L1780.4 0 1780.4-29.5 1784.9-29.5 1784.9 0ZM1758.85 16.15L1758.85 16.15Q1757.5 16.15 1756.7 15.15L1756.7 15.15Q1755.9 14.15 1755.95 12.2L1755.95 12.2 1755.95 7.45 1757.25 7.45 1757.25 12.2Q1757.25 13.7 1757.8 14.4L1757.8 14.4Q1758.3 15.1 1759.2 15.1L1759.2 15.1Q1760.15 15.1 1760.8 14.3L1760.8 14.3Q1761.5 13.55 1761.5 12.15L1761.5 12.15 1761.5 7.45 1762.8 7.45 1762.8 14.65Q1762.8 15.1 1762.8 15.35L1762.8 15.35Q1762.85 15.65 1762.95 15.95L1762.95 15.95 1761.7 15.95Q1761.55 15.65 1761.55 15.35L1761.55 15.35Q1761.5 15.1 1761.5 14.65L1761.5 14.65Q1761.1 15.35 1760.4 15.75L1760.4 15.75Q1759.7 16.15 1758.85 16.15ZM1787.9 0L1786.4 0 1786.4-29.5 1787.9-29.5 1787.9 0ZM1795.4 0L1793.9 0 1793.9-29.5 1795.4-29.5 1795.4 0ZM1798.4 0L1796.9 0 1796.9-29.5 1798.4-29.5 1798.4 0ZM1805.9 0L1804.4 0 1804.4-29.5 1805.9-29.5 1805.9 0ZM1813.4 0L1811.9 0 1811.9-29.5 1813.4-29.5 1813.4 0ZM1819.4 0L1814.9 0 1814.9-29.5 1819.4-29.5 1819.4 0ZM1822.4 0L1820.9 0 1820.9-29.5 1822.4-29.5 1822.4 0ZM1825.4 0L1823.9 0 1823.9-29.5 1825.4-29.5 1825.4 0ZM1831.4 0L1826.9 0 1826.9-29.5 1831.4-29.5 1831.4 0ZM1838.9 0L1837.4 0 1837.4-29.5 1838.9-29.5 1838.9 0ZM1815 7.25L1815 7.25Q1816.35 7.25 1817.25 8.2L1817.25 8.2 1816.65 9.2 1816.6 9.4 1816.45 9.3Q1816.4 9.1 1816.35 9L1816.35 9Q1816.25 8.85 1816 8.7L1816 8.7Q1815.55 8.4 1814.9 8.4L1814.9 8.4Q1814.25 8.4 1813.65 8.75L1813.65 8.75Q1813.05 9.05 1812.7 9.75L1812.7 9.75Q1812.3 10.45 1812.3 11.45L1812.3 11.45 1812.3 15.95 1810.95 15.95 1810.95 7.45 1812.35 7.45 1812.3 9Q1812.65 8.2 1813.4 7.7L1813.4 7.7Q1814.15 7.25 1815 7.25ZM1841.89 0L1840.39 0 1840.39-29.5 1841.89-29.5 1841.89 0ZM1849.39 0L1847.89 0 1847.89-29.5 1849.39-29.5 1849.39 0ZM1852.39 0L1850.89 0 1850.89-29.5 1852.39-29.5 1852.39 0ZM1859.89 0L1858.39 0 1858.39-29.5 1859.89-29.5 1859.89 0ZM1867.39 0L1865.89 0 1865.89-29.5 1867.39-29.5 1867.39 0ZM1873.39 0L1868.89 0 1868.89-29.5 1873.39-29.5 1873.39 0ZM1876.39 0L1874.89 0 1874.89-29.5 1876.39-29.5 1876.39 0ZM1882.39 0L1877.89 0 1877.89-29.5 1882.39-29.5 1882.39 0ZM1889.89 0L1888.39 0 1888.39-29.5 1889.89-29.5 1889.89 0ZM1892.89 0L1891.39 0 1891.39-29.5 1892.89-29.5 1892.89 0ZM1867.79 16.15L1867.79 16.15Q1865.89 16.15 1864.79 15L1864.79 15Q1863.64 13.85 1863.64 11.75L1863.64 11.75Q1863.64 10.35 1864.19 9.3L1864.19 9.3Q1864.69 8.3 1865.59 7.8L1865.59 7.8Q1866.44 7.25 1867.54 7.25L1867.54 7.25Q1869.09 7.25 1870.04 8.25L1870.04 8.25Q1870.99 9.3 1870.99 11.3L1870.99 11.3Q1870.99 11.5 1870.99 11.9L1870.99 11.9 1864.94 11.9Q1864.99 13.45 1865.79 14.25L1865.79 14.25Q1866.59 15.05 1867.84 15.05L1867.84 15.05Q1869.19 15.05 1870.04 14.1L1870.04 14.1 1870.79 14.85Q1869.69 16.15 1867.79 16.15ZM1864.99 10.85L1869.64 10.85Q1869.64 9.65 1869.04 8.95L1869.04 8.95Q1868.44 8.25 1867.44 8.25L1867.44 8.25Q1866.54 8.25 1865.84 8.9L1865.84 8.9Q1865.14 9.55 1864.99 10.85L1864.99 10.85ZM1898.89 0L1894.39 0 1894.39-29.5 1898.89-29.5 1898.89 0ZM1906.39 0L1904.89 0 1904.89-29.5 1906.39-29.5 1906.39 0ZM1909.39 0L1907.89 0 1907.89-29.5 1909.39-29.5 1909.39 0ZM1915.39 0L1910.89 0 1910.89-29.5 1915.39-29.5 1915.39 0ZM1918.39 0L1916.89 0 1916.89-29.5 1918.39-29.5 1918.39 0ZM1906.89 16.15L1906.89 16.15Q1906.49 16.15 1906.14 15.85L1906.14 15.85Q1905.84 15.5 1905.84 15.1L1905.84 15.1Q1905.84 14.65 1906.14 14.35L1906.14 14.35Q1906.49 14.05 1906.89 14.05L1906.89 14.05Q1907.34 14.05 1907.64 14.35L1907.64 14.35Q1907.99 14.65 1907.99 15.1L1907.99 15.1Q1907.99 15.5 1907.64 15.85L1907.64 15.85Q1907.34 16.15 1906.89 16.15Z" opacity="1" transform="matrix(1,0,0,1,0,0)" fill="#bb84e8" class="slogan-text-1" data-fill-palette-color="secondary" id="text-1"></path></svg></g></svg></g></svg></g></svg></g><g><svg viewBox="0 0 243.4903553077791 243.4903553077791" height="243.4903553077791" width="243.4903553077791"><g><svg viewBox="0 0 243.4903553077791 243.4903553077791" height="243.4903553077791" width="243.4903553077791"><g transform="matrix(1,0,0,1,83.63365631181946,64.35395052333874)"><svg viewBox="0 0 76.22304268414018 114.78245426110165" height="114.78245426110165" width="76.22304268414018"><g><svg xmlns="http://www.w3.org/2000/svg" data-name="Layer 1" viewBox="24.100911551858957 5.200000000000001 58.78970004184583 88.53000114466862" x="0" y="0" height="114.78245426110165" width="76.22304268414018" class="icon-cg-0" data-fill-palette-color="accent" id="cg-0"><path d="M77.4 33.74a1.34 1.34 0 0 0 0.48 0.11 1.32 1.32 0 0 0 0.82-0.29A1.3 1.3 0 0 0 79.08 32c-0.2-0.48-5.15-11.65-15.21-13.77a43.1 43.1 0 0 0-10.43-1.18c-1.94-4.61 0.06-10 0.08-10.07a1.33 1.33 0 0 0-0.12-1.18 1.32 1.32 0 0 0-1-0.6 32.12 32.12 0 0 0-5.64 0.5 1.32 1.32 0 0 0-0.82 2.07c0.77 1 0.72 5.62 0.25 9.42-10 1.26-18.23 8.45-18.62 8.8a1.31 1.31 0 0 0 0.24 2.12 24.24 24.24 0 0 0-3.7 13.55 1.32 1.32 0 0 0 1 1.19 1.24 1.24 0 0 0 0.27 0 1.34 1.34 0 0 0 0.89-0.36c-1.69 8 0.49 16.1 0.6 16.51a1.31 1.31 0 0 0 1.23 1h0.15a5.52 5.52 0 0 0 1-0.09c-0.78 8.4 2.62 13.37 2.77 13.58a1.31 1.31 0 0 0 1.62 0.44c0.07 0 0.69-0.32 1.56-0.82a31.39 31.39 0 0 0 8.07 14.33 1.32 1.32 0 0 0 0.9 0.35 1.23 1.23 0 0 0 0.64-0.17A17.75 17.75 0 0 0 47.09 86l4.41 7.12a1.33 1.33 0 0 0 1.12 0.61h0a1.31 1.31 0 0 0 1.11-0.64l3.38-5.78c0.57 0.58 1 0.91 1 1a1.3 1.3 0 0 0 0.83 0.3 1.29 1.29 0 0 0 0.77-0.25c4.15-3 6.81-8.49 8.11-11.79 0.6 1 1 1.65 1.09 1.73a1.3 1.3 0 0 0 1 0.58h0.12a1.33 1.33 0 0 0 1-0.41c0.18-0.19 4.16-4.48 5.81-12.78l0.31 0.19a1.26 1.26 0 0 0 0.65 0.17 1.36 1.36 0 0 0 0.87-0.32c0.2-0.18 4.68-4.3 2.61-16.73a1.54 1.54 0 0 0 0.3 0 1.31 1.31 0 0 0 1.31-1.35C82.71 42.9 79.92 37.51 77.4 33.74Zm-2.83-4.37L73.45 29h0A137.16 137.16 0 0 0 59.5 25.06a11.22 11.22 0 0 1-6.44-4.35 4.09 4.09 0 0 0 0.55-1 40.77 40.77 0 0 1 9.72 1.12C68.64 21.93 72.41 26.19 74.57 29.37ZM58.85 58.51c-2-1.44-6.72-5.55-7.6-12.16v0a30.4 30.4 0 0 0 1.4-4.07A19.5 19.5 0 0 0 56 43.8a1.38 1.38 0 0 0 1.24-0.26 21.36 21.36 0 0 0 4.25-5.31 18.71 18.71 0 0 0 3.82 3.47C65.74 49.85 60.75 56.35 58.85 58.51Zm7-6A22.32 22.32 0 0 0 68 56.92c-0.72 7.07-6.27 13.25-8.62 15.56-1.71-2.45-4.45-6.77-5.17-9.56a19.32 19.32 0 0 0 1-4 20.2 20.2 0 0 0 3.19 2.47 1.28 1.28 0 0 0 0.66 0.18 1.31 1.31 0 0 0 0.91-0.36A29.7 29.7 0 0 0 65.82 52.47ZM50.33 22.06l0.44 0a13.92 13.92 0 0 0 8.11 5.6l1.22 0.29s0 0.06 0 0.09c2.38 5.86-2.4 11.37-4.07 13a18.32 18.32 0 0 1-5.21-3.22 12.56 12.56 0 0 1-4.09-12.37A13.78 13.78 0 0 0 50.33 22.06Zm0 18.66a33.22 33.22 0 0 1-7.52 14 17.71 17.71 0 0 1-4.31-17.58 23.83 23.83 0 0 0 6.32-3.53A16.18 16.18 0 0 0 50.31 40.72ZM39.54 55a18.07 18.07 0 0 0 2.51 2.63 1.35 1.35 0 0 0 0.81 0.28 1.32 1.32 0 0 0 0.9-0.37A36 36 0 0 0 49.41 50a20 20 0 0 0 3.3 6.15c0.31 6.9-5.44 13.78-8 16.48l-0.33-0.53C42.24 68.71 38.43 62.66 39.54 55Zm9.11-36.8a1.14 1.14 0 0 0 0.06-0.25c0.17-1.24 0.81-6.58 0.06-9.85 0.55-0.07 1.17-0.14 1.76-0.18-0.58 2.37-1.17 6.69 0.67 10.63a1.11 1.11 0 0 1-0.25 0.65 1.66 1.66 0 0 1-1.26 0.29 1.38 1.38 0 0 1-1-0.33A1.39 1.39 0 0 1 48.65 18.16Zm-2.5 1.68a3.3 3.3 0 0 0 0.36 0.73 3.14 3.14 0 0 0 0.94 0.9 13.21 13.21 0 0 1-6.91 3.81 32 32 0 0 1-8.85 0.82C34.67 24 40.1 20.7 46.15 19.84ZM26.85 38.11a21 21 0 0 1 3.78-9.46c0.71 0.07 1.55 0.12 2.52 0.12a36 36 0 0 0 8-0.94 16.27 16.27 0 0 0 2.79-0.89 15.89 15.89 0 0 0 0.14 3.88 19.9 19.9 0 0 1-10.32 4.79A13.92 13.92 0 0 0 26.85 38.11Zm2.31 19.2c-0.63-2.93-2-11.36 0.88-18.05a13 13 0 0 1 4-1c0.54-0.06 1.06-0.15 1.57-0.25a20 20 0 0 0 1.91 13.87 1.13 1.13 0 0 0-0.22 0.27C36.38 53.08 32.31 56.68 29.16 57.31ZM33.61 71A20.75 20.75 0 0 1 32 59.17s0-0.05 0-0.08A22.94 22.94 0 0 0 36.79 56a23.75 23.75 0 0 0 1.9 11A18.19 18.19 0 0 1 33.61 71ZM44.36 84.81A29.16 29.16 0 0 1 37.59 71.9a1.6 1.6 0 0 0-0.1-0.23 18.93 18.93 0 0 0 2.41-2c0.81 1.55 1.63 2.86 2.27 3.87a15.75 15.75 0 0 1 1 1.73 1.3 1.3 0 0 0 0.92 0.83 1.1 1.1 0 0 0 0.31 0 1.29 1.29 0 0 0 0.88-0.34 35.74 35.74 0 0 0 3.23-3.46 39.42 39.42 0 0 0 1.94 5.19s0 0 0 0A17.31 17.31 0 0 1 44.36 84.81Zm8.22 5.12l-3.52-5.69A18.74 18.74 0 0 0 52 80.4a35.84 35.84 0 0 0 3.33 4.89Zm6.49-4.35a34.59 34.59 0 0 1-8.54-15.89 32.58 32.58 0 0 0 2.1-3.39 59 59 0 0 0 5.46 8.94 1.33 1.33 0 0 0 0.91 0.52h0.14a1.33 1.33 0 0 0 0.85-0.31 37.23 37.23 0 0 0 4.56-4.87c0.47 1 1 2.06 1.59 3.07C65.53 75.5 63.16 82 59.07 85.58ZM70.16 75.31a47.78 47.78 0 0 1-3.81-7.21 26.89 26.89 0 0 0 3.74-8.26A30.07 30.07 0 0 0 74.44 64 28.12 28.12 0 0 1 70.16 75.31ZM77.48 63C75 61.3 68.56 56.14 67.54 48.39a1.36 1.36 0 0 0-0.19-0.52 22.85 22.85 0 0 0 0.59-4.48A65.35 65.35 0 0 0 78.43 48.1C80.19 57 78.46 61.39 77.48 63ZM79.9 45.84C74.5 44 65 39.91 62.74 35.38a12 12 0 0 0 0.34-6.74c3.15 0.79 6.44 1.69 9.17 2.66 1.06 1.24 6.64 8 7.79 14.58Z" fill="#bb84e8" data-fill-palette-color="accent"></path></svg></g></svg></g><g id="text-0"><path d="M22.635 89.246c-0.413 1.23-1.081 2.292-2.003 3.189v0c-0.403 0.401-0.824 0.71-1.264 0.929v0c0.316 0.381 0.568 0.808 0.754 1.28v0c0.124 0.387 0.19 0.6 0.199 0.638v0l-0.221 0.656-4.963-1.668 0.352-1.046c0.943 0.028 1.832-0.079 2.668-0.32v0c1.871-0.549 3.089-1.667 3.656-3.352v0c0.335-0.995 0.303-1.887-0.094-2.678-0.391-0.788-1.081-1.348-2.07-1.679v0c-0.577-0.194-1.147-0.199-1.71-0.014-0.571 0.189-1.112 0.476-1.623 0.861-0.519 0.39-1.193 0.946-2.021 1.67v0c-1.026 0.932-1.919 1.669-2.68 2.21-0.765 0.533-1.628 0.92-2.591 1.161-0.956 0.243-1.976 0.182-3.06-0.182v0c-0.849-0.285-1.535-0.784-2.058-1.496-0.531-0.708-0.839-1.608-0.922-2.702-0.09-1.096 0.099-2.34 0.568-3.735v0c0.339-1.008 0.966-1.919 1.881-2.732v0c0.337-0.31 0.745-0.6 1.223-0.869v0c-0.358-0.445-0.614-0.87-0.767-1.274v0c-0.117-0.385-0.18-0.597-0.189-0.635v0l0.221-0.656 4.953 1.665-0.352 1.046c-0.911-0.059-1.783 0.025-2.614 0.254v0c-0.8 0.197-1.518 0.53-2.156 0.999-0.644 0.468-1.1 1.101-1.369 1.9v0c-0.228 0.678-0.155 1.352 0.22 2.021 0.375 0.669 0.98 1.144 1.817 1.425v0c0.64 0.215 1.28 0.222 1.919 0.021 0.639-0.201 1.24-0.511 1.804-0.928 0.572-0.421 1.285-1.011 2.139-1.767v0c0.996-0.886 1.849-1.586 2.559-2.103 0.716-0.514 1.514-0.884 2.394-1.11 0.88-0.226 1.789-0.182 2.727 0.134v0c0.938 0.315 1.703 0.872 2.295 1.671 0.592 0.799 0.935 1.813 1.03 3.044 0.088 1.229-0.129 2.619-0.652 4.172z" fill="#bb84e8" data-fill-palette-color="accent"></path><path d="M28.512 74.188l-0.349-0.216 0.515-1.615-10.297-6.366-1.224 1.178-0.349-0.217 1.302-2.107c0.57-0.921 1.314-1.464 2.232-1.627v0c0.362-0.051 0.757-0.043 1.187 0.026v0c-0.267-0.471-0.456-0.946-0.569-1.425v0c-0.273-1.136-0.086-2.227 0.561-3.273v0c0.541-0.876 1.212-1.546 2.01-2.012 0.793-0.469 1.605-0.714 2.435-0.735 0.84-0.023 1.587 0.167 2.241 0.572v0l7.49 4.631 1.22-1.192 0.35 0.216-1.883 3.046c-0.868 1.405-2.005 1.673-3.41 0.805v0l-6.082-3.761c-0.984-0.608-1.847-0.898-2.588-0.868-0.738 0.023-1.252 0.271-1.544 0.743v0c-0.366 0.591-0.38 1.314-0.043 2.167v0c0.135 0.366 0.341 0.733 0.617 1.1v0l8.659 5.353 1.22-1.191 0.35 0.216z" fill="#bb84e8" data-fill-palette-color="accent"></path><path d="M46.851 50.021c-1.151 1.156-2.284 1.802-3.4 1.937-1.116 0.135-2.057-0.18-2.825-0.944v0c-0.507-0.505-0.896-1.114-1.167-1.828v0c-0.147-0.326-0.247-0.657-0.3-0.992v0c0.405-0.663 0.865-1.356 1.378-2.081v0c1.164-1.643 2.256-3.028 3.275-4.156v0l-0.583-0.58c-1.445-1.439-2.615-2.254-3.509-2.446-0.894-0.192-1.702 0.075-2.423 0.799v0c-0.274 0.275-0.474 0.542-0.602 0.803v0l-0.183 0.369 2.928 2.916-0.191 0.305c-0.179 0.237-0.34 0.426-0.481 0.569v0c-0.443 0.445-0.932 0.666-1.466 0.662-0.53 0.001-1.015-0.218-1.456-0.656v0c-0.597-0.594-0.804-1.4-0.622-2.417 0.187-1.022 0.875-2.13 2.064-3.324v0c1.01-1.014 2.06-1.709 3.151-2.085 1.087-0.381 2.136-0.449 3.149-0.205 1.012 0.244 1.928 0.774 2.748 1.59v0l5.266 5.244 1.459-0.883 0.292 0.29-1.748 1.756c-0.778 0.782-1.622 1.145-2.53 1.09v0c-0.378-0.009-0.766-0.112-1.163-0.309v0c0.143 0.51 0.222 1.018 0.237 1.524v0c0.003 1.163-0.43 2.181-1.298 3.052zM46.94 48.567c0.481-0.483 0.655-1.179 0.52-2.086v0c-0.053-0.336-0.162-0.742-0.329-1.219v0l-2.829-2.816c-0.594 0.597-1.13 1.201-1.606 1.812v0c-0.349 0.455-0.589 0.758-0.721 0.909v0c0.076 0.208 0.207 0.47 0.392 0.786v0c0.365 0.619 0.787 1.166 1.266 1.643v0c0.73 0.727 1.381 1.153 1.953 1.279 0.568 0.131 1.019 0.029 1.354-0.308z" fill="#bb84e8" data-fill-palette-color="accent"></path><path d="M62.886 42.594l-0.219-0.348 1.176-1.238-9.372-14.899-1.625 0.524-0.219-0.348 2.097-1.319c0.917-0.577 1.824-0.736 2.72-0.479v0c0.353 0.11 0.707 0.29 1.063 0.541v0c-0.055-0.526-0.019-1.035 0.107-1.525v0c0.26-1.143 0.911-2.042 1.953-2.698v0c0.911-0.573 1.876-0.848 2.893-0.825 1.009 0.021 2.014 0.364 3.017 1.029 0.999 0.659 1.913 1.648 2.743 2.967v0c1.25 1.987 1.748 3.802 1.495 5.446-0.259 1.648-1.172 2.965-2.74 3.951v0c-0.741 0.466-1.49 0.72-2.246 0.762v0c-0.3 0.038-0.638 0.034-1.016-0.013v0l2.857 4.542 1.625-0.525 0.219 0.348zM66.612 33.259c0.668-0.42 0.939-1.132 0.813-2.135-0.123-1.012-0.844-2.566-2.161-4.66v0c-1.26-2.004-2.303-3.291-3.128-3.861-0.829-0.577-1.492-0.708-1.991-0.395v0c-0.589 0.37-0.922 1.014-1 1.932v0c-0.034 0.385-0.008 0.803 0.078 1.254v0l5.052 8.032c0.354 0.085 0.622 0.134 0.803 0.146v0c0.615 0.048 1.126-0.056 1.534-0.313z" fill="#bb84e8" data-fill-palette-color="accent"></path><path d="M87.928 24.141c-1.225 0.427-2.474 0.552-3.748 0.373v0c-0.564-0.072-1.067-0.216-1.509-0.429v0c-0.107 0.484-0.29 0.944-0.548 1.381v0c-0.23 0.335-0.357 0.518-0.383 0.548v0l-0.653 0.228-1.726-4.943 1.042-0.364c0.556 0.762 1.186 1.399 1.889 1.912v0c1.581 1.141 3.211 1.418 4.89 0.832v0c0.991-0.346 1.677-0.918 2.057-1.717 0.382-0.792 0.401-1.68 0.057-2.665v0c-0.201-0.574-0.546-1.027-1.037-1.359-0.5-0.336-1.058-0.587-1.676-0.753-0.626-0.171-1.479-0.362-2.558-0.573v0c-1.365-0.239-2.495-0.493-3.389-0.762-0.89-0.277-1.725-0.722-2.506-1.335-0.778-0.607-1.356-1.45-1.732-2.529v0c-0.295-0.846-0.322-1.694-0.08-2.543 0.233-0.853 0.756-1.648 1.568-2.385 0.81-0.743 1.909-1.357 3.298-1.842v0c1.004-0.35 2.108-0.413 3.313-0.189v0c0.451 0.076 0.93 0.221 1.436 0.434v0c0.132-0.556 0.31-1.018 0.536-1.388v0c0.232-0.329 0.361-0.508 0.386-0.538v0l0.653-0.228 1.722 4.933-1.042 0.364c-0.512-0.756-1.113-1.393-1.803-1.91v0c-0.646-0.511-1.35-0.874-2.112-1.09-0.764-0.222-1.544-0.194-2.34 0.084v0c-0.675 0.236-1.163 0.707-1.461 1.413-0.299 0.706-0.303 1.476-0.012 2.309v0c0.223 0.638 0.609 1.147 1.16 1.529 0.551 0.381 1.164 0.667 1.839 0.856 0.684 0.193 1.586 0.395 2.708 0.606v0c1.31 0.244 2.387 0.488 3.23 0.731 0.845 0.25 1.627 0.654 2.345 1.211 0.718 0.557 1.241 1.302 1.567 2.236v0c0.326 0.934 0.355 1.88 0.087 2.838-0.268 0.957-0.859 1.851-1.773 2.68-0.917 0.823-2.148 1.504-3.695 2.044z" fill="#bb84e8" data-fill-palette-color="accent"></path><path d="M103.424 19.552l-0.043-0.409 1.592-0.583-1.865-17.513-1.679-0.235-0.044-0.409 3.551-0.378c1.642-0.175 2.55 0.555 2.724 2.191v0l0.467 4.379c0.234-0.388 0.486-0.707 0.755-0.958v0c0.72-0.689 1.592-1.087 2.616-1.197v0c1.024-0.109 1.964 0.009 2.822 0.355 0.856 0.339 1.548 0.83 2.073 1.474 0.533 0.649 0.84 1.356 0.922 2.121v0l0.932 8.757 1.69 0.233 0.043 0.409-3.56 0.379c-1.642 0.175-2.551-0.559-2.726-2.201v0l-0.757-7.111c-0.122-1.15-0.422-2.009-0.9-2.577-0.471-0.569-0.982-0.823-1.534-0.764v0c-0.691 0.074-1.271 0.505-1.738 1.294v0c-0.207 0.331-0.371 0.719-0.492 1.162v0l1.078 10.123 1.689 0.234 0.044 0.409z" fill="#bb84e8" data-fill-palette-color="accent"></path><path d="M135.677 19.459c-2.256-0.278-3.949-1.137-5.079-2.576-1.122-1.445-1.544-3.296-1.266-5.553v0c0.278-2.256 1.137-3.949 2.577-5.078 1.445-1.122 3.296-1.544 5.552-1.267v0c2.256 0.278 3.946 1.136 5.069 2.576 1.129 1.446 1.554 3.297 1.276 5.553v0c-0.278 2.256-1.14 3.949-2.586 5.078-1.439 1.123-3.286 1.545-5.543 1.267zM135.745 18.912c0.73 0.09 1.406-0.342 2.029-1.296 0.624-0.961 1.085-2.652 1.383-5.075v0c0.298-2.422 0.261-4.172-0.111-5.248-0.372-1.083-0.923-1.67-1.652-1.76v0c-0.73-0.09-1.407 0.345-2.031 1.306-0.629 0.953-1.093 2.641-1.392 5.063v0c-0.298 2.422-0.259 4.175 0.12 5.26 0.373 1.077 0.924 1.66 1.654 1.75z" fill="#bb84e8" data-fill-palette-color="accent"></path><path d="M151.812 22.314l0.137-0.388 1.688 0.159 4.024-11.418-1.411-0.944 0.137-0.387 2.336 0.823c1.022 0.36 1.71 0.971 2.066 1.834v0c0.127 0.343 0.203 0.731 0.227 1.165v0c0.392-0.287 0.836-0.521 1.332-0.7v0c1.106-0.383 2.195-0.385 3.267-0.008v0c0.914 0.322 1.527 0.776 1.839 1.361 0.311 0.585 0.327 1.274 0.047 2.069v0c-0.207 0.586-0.55 0.997-1.03 1.232-0.484 0.226-1.019 0.236-1.606 0.03v0c-0.24-0.084-0.476-0.189-0.708-0.314v0l-0.285-0.186 1.28-3.632c-0.883-0.311-1.809-0.248-2.779 0.19v0c-0.469 0.225-0.869 0.474-1.199 0.747v0l-3.384 9.602 1.424 0.938-0.137 0.387z" fill="#bb84e8" data-fill-palette-color="accent"></path><path d="M177.387 34.386c-1.041-0.617-1.831-1.343-2.371-2.176-0.54-0.833-0.818-1.702-0.834-2.605-0.022-0.907 0.214-1.777 0.709-2.611v0l4.281-7.221-1.656-0.982 0.353-0.595 1.656 0.982 0.701-1.182c0.842-1.421 1.974-1.71 3.395-0.867v0l1.656 0.982-1.964 3.313 3.312 1.964-0.353 0.595-3.312-1.964-4.282 7.221c-0.859 1.449-1.298 2.53-1.316 3.242-0.022 0.718 0.261 1.251 0.847 1.599v0c0.569 0.338 1.231 0.357 1.984 0.057 0.753-0.3 1.411-0.924 1.973-1.873v0l0.587 0.347c-0.692 1.168-1.518 1.898-2.478 2.193-0.965 0.291-1.928 0.151-2.888-0.419z" fill="#bb84e8" data-fill-palette-color="accent"></path><path d="M194.416 47.996c-1.984-1.853-3.05-3.723-3.2-5.611-0.149-1.878 0.566-3.662 2.146-5.353v0l7.887-8.443-0.928-1.43 0.28-0.301 5.732 5.355-0.281 0.3-1.49-0.829-7.888 8.443c-1.616 1.73-2.502 3.217-2.658 4.462-0.161 1.25 0.262 2.345 1.269 3.285v0c0.616 0.575 1.387 0.925 2.313 1.049 0.922 0.12 1.896-0.027 2.923-0.44 1.022-0.409 1.985-1.097 2.889-2.064v0l7.607-8.142-1.044-2.101 0.281-0.3 3.818 3.567-0.28 0.3-2.167-0.898-7.607 8.143c-1.013 1.085-2.099 1.841-3.258 2.268-1.154 0.432-2.279 0.534-3.374 0.306-1.096-0.218-2.085-0.74-2.97-1.566z" fill="#bb84e8" data-fill-palette-color="accent"></path><path d="M205.982 60.037l0.345-0.223 1.243 1.168 14.802-9.543-0.551-1.614 0.345-0.223 3.952 6.129c1.692 2.624 2.513 4.768 2.463 6.431-0.046 1.669-0.78 2.961-2.201 3.877v0c-0.955 0.616-1.891 0.861-2.808 0.736-0.925-0.127-1.793-0.499-2.603-1.114v0c-0.869-0.633-1.62-1.426-2.251-2.379v0l-0.118 0.076c0.336 0.595 0.576 1.152 0.72 1.672v0c0.353 1.3 0.214 2.424-0.416 3.371v0l-3.285 5.066 0.399 1.377-0.346 0.223-2.087-3.237c-0.815-1.264-0.757-2.611 0.176-4.04v0l3.72-5.668-0.972-1.509-6.483 4.179 0.704 1.85-0.346 0.223zM217.082 60.244l0.598 0.927c0.696 1.079 1.583 1.708 2.661 1.888 1.079 0.18 2.247-0.136 3.506-0.948v0c1.264-0.815 2.037-1.751 2.319-2.808 0.281-1.057 0.074-2.124-0.622-3.203v0l-0.597-0.927z" fill="#bb84e8" data-fill-palette-color="accent"></path><path d="M218.943 82.612l0.387-0.138 0.94 1.423 16.603-5.877-0.165-1.697 0.388-0.137 2.617 7.394-0.388 0.137-0.939-1.423-16.726 5.92 1.974 5.579c1.084-0.384 2.194-0.465 3.33-0.243v0c0.484 0.105 0.913 0.276 1.288 0.513v0l0.274 0.775-4.67 1.653z" fill="#bb84e8" data-fill-palette-color="accent"></path><path d="M8.791 163.021c-0.418-1.242-0.531-2.499-0.338-3.77v0c0.081-0.577 0.23-1.086 0.449-1.527v0c-0.482-0.113-0.944-0.3-1.384-0.561v0c-0.335-0.24-0.517-0.373-0.547-0.398v0l-0.221-0.656 4.99-1.68 0.352 1.046c-0.766 0.554-1.412 1.181-1.938 1.88v0c-1.16 1.583-1.455 3.224-0.883 4.922v0c0.335 0.995 0.901 1.69 1.697 2.085 0.796 0.395 1.692 0.425 2.686 0.09v0c0.577-0.194 1.036-0.539 1.377-1.034 0.343-0.489 0.603-1.05 0.778-1.681 0.178-0.624 0.377-1.478 0.598-2.561v0c0.262-1.379 0.536-2.516 0.821-3.409 0.279-0.891 0.731-1.728 1.357-2.509 0.628-0.776 1.483-1.346 2.567-1.711v0c0.862-0.29 1.719-0.311 2.572-0.062 0.853 0.249 1.647 0.786 2.383 1.61 0.736 0.825 1.34 1.937 1.812 3.338v0c0.343 1.02 0.398 2.134 0.162 3.342v0c-0.085 0.459-0.237 0.941-0.456 1.445v0c0.554 0.138 1.015 0.322 1.382 0.551v0c0.335 0.24 0.518 0.376 0.55 0.407v0l0.221 0.656-4.991 1.68-0.355-1.055c0.766-0.512 1.414-1.111 1.945-1.798v0c0.525-0.642 0.901-1.347 1.129-2.115 0.228-0.768 0.207-1.555-0.064-2.36v0c-0.23-0.684-0.7-1.179-1.409-1.483-0.711-0.311-1.485-0.325-2.322-0.044v0c-0.646 0.218-1.165 0.604-1.557 1.159-0.394 0.549-0.688 1.163-0.883 1.842-0.201 0.681-0.415 1.586-0.642 2.714v0c-0.256 1.314-0.516 2.396-0.78 3.247-0.258 0.849-0.671 1.633-1.239 2.354-0.565 0.712-1.322 1.228-2.273 1.548v0c-0.944 0.318-1.898 0.336-2.861 0.053-0.961-0.276-1.853-0.883-2.676-1.819-0.815-0.932-1.485-2.178-2.009-3.736z" fill="#bb84e8" data-fill-palette-color="accent"></path><path d="M16.768 180.616l0.349-0.216 1.229 1.186 10.372-6.417-0.521-1.624 0.358-0.222 1.309 2.116c0.573 0.927 0.727 1.842 0.46 2.746v0c-0.112 0.352-0.298 0.707-0.556 1.064v0c0.547-0.032 1.062 0.007 1.546 0.116v0c1.145 0.275 2.043 0.938 2.694 1.99v0c0.542 0.876 0.844 1.778 0.907 2.705 0.063 0.928-0.082 1.773-0.437 2.535-0.351 0.767-0.856 1.355-1.515 1.763v0l-7.54 4.665 0.512 1.629-0.349 0.217-1.895-3.062c-0.876-1.416-0.606-2.562 0.81-3.438v0l6.124-3.789c0.989-0.612 1.639-1.258 1.95-1.938 0.305-0.676 0.312-1.25 0.02-1.722v0c-0.369-0.597-1.013-0.938-1.931-1.023v0c-0.394-0.039-0.817-0.018-1.268 0.065v0l-8.717 5.394 0.517 1.637-0.349 0.216z" fill="#bb84e8" data-fill-palette-color="accent"></path><path d="M36.505 207.865c-1.161-1.165-1.804-2.308-1.93-3.429-0.13-1.126 0.19-2.073 0.963-2.842v0c0.507-0.505 1.12-0.894 1.839-1.167v0c0.327-0.146 0.662-0.245 1.007-0.296v0c0.661 0.408 1.358 0.875 2.09 1.401v0c1.643 1.176 3.034 2.282 4.171 3.319v0l0.59-0.587c1.454-1.449 2.279-2.625 2.474-3.528 0.195-0.903-0.07-1.719-0.797-2.448v0c-0.274-0.275-0.543-0.479-0.807-0.611v0l-0.376-0.178-2.941 2.931-0.312-0.185c-0.236-0.19-0.425-0.355-0.566-0.498v0c-0.444-0.445-0.665-0.937-0.664-1.476 0.001-0.53 0.224-1.016 0.669-1.46v0c0.602-0.599 1.415-0.806 2.441-0.62 1.026 0.196 2.138 0.895 3.336 2.099v0c1.015 1.018 1.713 2.079 2.094 3.181 0.376 1.098 0.438 2.154 0.186 3.17-0.248 1.021-0.784 1.942-1.608 2.763v0l-5.3 5.281 0.876 1.477-0.291 0.29-1.763-1.769c-0.783-0.786-1.148-1.636-1.094-2.548v0c0.015-0.383 0.12-0.775 0.314-1.177v0c-0.511 0.141-1.019 0.218-1.525 0.232v0c-1.173-0.002-2.198-0.444-3.076-1.325zM37.973 207.974c0.481 0.483 1.181 0.659 2.098 0.529v0c0.336-0.051 0.747-0.159 1.235-0.324v0l2.849-2.839c-0.599-0.602-1.208-1.146-1.827-1.635v0c-0.453-0.351-0.76-0.592-0.921-0.725v0c-0.203 0.08-0.464 0.212-0.78 0.396v0c-0.629 0.363-1.186 0.785-1.669 1.267v0c-0.734 0.732-1.166 1.383-1.295 1.955-0.133 0.577-0.03 1.035 0.31 1.376z" fill="#bb84e8" data-fill-palette-color="accent"></path><path d="M49.638 225.987l0.224-0.357 1.628 0.538 9.444-15.021-1.191-1.234 0.224-0.357 2.115 1.33c0.923 0.58 1.463 1.335 1.621 2.263v0c0.054 0.366 0.041 0.764-0.04 1.195v0c0.46-0.279 0.943-0.47 1.448-0.57v0c1.143-0.261 2.238-0.062 3.286 0.596v0c0.923 0.58 1.594 1.334 2.014 2.262 0.42 0.927 0.549 1.992 0.386 3.192-0.159 1.195-0.657 2.458-1.493 3.789v0c-1.26 2.004-2.693 3.247-4.3 3.729-1.601 0.486-3.191 0.233-4.77-0.76v0c-0.753-0.473-1.312-1.042-1.677-1.705v0c-0.17-0.257-0.316-0.566-0.436-0.926v0l-2.878 4.576 1.191 1.235-0.224 0.356zM59.729 225.294c0.674 0.423 1.442 0.357 2.304-0.198 0.859-0.55 1.952-1.881 3.28-3.992v0c1.267-2.015 1.98-3.526 2.138-4.532 0.161-0.997-0.008-1.652-0.506-1.965v0c-0.594-0.374-1.322-0.397-2.183-0.07v0c-0.371 0.138-0.741 0.344-1.111 0.617v0l-5.087 8.092c0.082 0.36 0.157 0.624 0.224 0.793v0c0.22 0.58 0.533 0.999 0.941 1.255z" fill="#bb84e8" data-fill-palette-color="accent"></path><path d="M83.132 237.224c-1.237-0.432-2.299-1.114-3.185-2.046v0c-0.407-0.418-0.717-0.848-0.93-1.291v0c-0.385 0.312-0.816 0.562-1.292 0.749v0c-0.395 0.117-0.612 0.18-0.65 0.188v0l-0.653-0.228 1.734-4.972 1.042 0.364c-0.032 0.945 0.066 1.84 0.296 2.684v0c0.538 1.887 1.653 3.126 3.345 3.717v0c0.991 0.346 1.887 0.325 2.688-0.061 0.8-0.386 1.374-1.075 1.719-2.067v0c0.2-0.575 0.209-1.149 0.027-1.722-0.176-0.571-0.459-1.12-0.849-1.645-0.384-0.523-0.936-1.205-1.656-2.044v0c-0.928-1.053-1.658-1.966-2.189-2.739-0.533-0.767-0.916-1.637-1.15-2.611-0.228-0.972-0.153-1.997 0.224-3.076v0c0.3-0.859 0.809-1.548 1.529-2.07 0.72-0.521 1.631-0.819 2.734-0.894 1.103-0.076 2.352 0.13 3.747 0.617v0c1.016 0.355 1.93 0.995 2.739 1.922v0c0.31 0.349 0.597 0.764 0.862 1.246v0c0.449-0.353 0.876-0.604 1.282-0.753v0c0.395-0.117 0.615-0.179 0.659-0.184v0l0.654 0.228-1.735 4.971-1.051-0.366c0.066-0.919-0.01-1.799-0.226-2.639v0c-0.185-0.808-0.511-1.538-0.979-2.19-0.467-0.651-1.101-1.117-1.902-1.397v0c-0.682-0.238-1.361-0.17-2.036 0.203-0.682 0.371-1.168 0.973-1.459 1.807v0c-0.225 0.644-0.238 1.291-0.04 1.941 0.192 0.648 0.496 1.257 0.913 1.827 0.415 0.577 0.998 1.301 1.75 2.172v0c0.88 1.008 1.576 1.878 2.085 2.608 0.512 0.724 0.878 1.532 1.099 2.422 0.216 0.883 0.159 1.798-0.171 2.745v0c-0.328 0.941-0.899 1.705-1.713 2.292-0.808 0.589-1.834 0.922-3.078 0.997-1.236 0.072-2.63-0.164-4.184-0.705z" fill="#bb84e8" data-fill-palette-color="accent"></path><path d="M101.924 241.716l0.043-0.408 1.69-0.244 1.877-17.633-1.601-0.594 0.044-0.409 3.58 0.381c1.649 0.176 2.386 1.088 2.21 2.737v0l-0.469 4.408c0.318-0.336 0.635-0.598 0.951-0.786v0c0.856-0.521 1.799-0.726 2.83-0.617v0c1.024 0.109 1.922 0.423 2.693 0.942 0.772 0.519 1.35 1.152 1.735 1.9 0.391 0.748 0.546 1.507 0.463 2.278v0l-0.938 8.816 1.601 0.594-0.044 0.409-3.58-0.381c-1.656-0.176-2.395-1.092-2.219-2.747v0l0.762-7.161c0.123-1.157 0.011-2.066-0.335-2.729-0.347-0.656-0.797-1.013-1.348-1.071v0c-0.698-0.074-1.362 0.225-1.992 0.897v0c-0.273 0.287-0.515 0.634-0.726 1.042v0l-1.085 10.193 1.611 0.595-0.044 0.409z" fill="#bb84e8" data-fill-palette-color="accent"></path><path d="M137.477 242.603c-2.276 0.281-4.141-0.143-5.594-1.271-1.447-1.135-2.311-2.841-2.591-5.118v0c-0.281-2.276 0.144-4.137 1.272-5.583 1.135-1.454 2.84-2.321 5.117-2.601v0c2.27-0.28 4.131 0.148 5.584 1.282 1.453 1.128 2.319 2.83 2.6 5.106v0c0.281 2.276-0.147 4.141-1.281 5.595-1.135 1.447-2.838 2.31-5.107 2.59zM137.409 242.056c0.73-0.09 1.284-0.68 1.662-1.772 0.378-1.084 0.417-2.847 0.116-5.289v0c-0.3-2.436-0.766-4.136-1.397-5.103-0.631-0.966-1.312-1.405-2.042-1.315v0c-0.737 0.091-1.294 0.682-1.671 1.773-0.378 1.091-0.416 2.854-0.116 5.289v0c0.301 2.442 0.767 4.143 1.397 5.103 0.631 0.966 1.315 1.404 2.051 1.314z" fill="#bb84e8" data-fill-palette-color="accent"></path><path d="M156.352 238.269l-0.136-0.388 1.421-0.947-4.053-11.503-1.698 0.162-0.14-0.397 2.346-0.827c1.028-0.362 1.955-0.317 2.782 0.137v0c0.32 0.185 0.627 0.442 0.92 0.771v0c0.123-0.476 0.321-0.939 0.595-1.39v0c0.624-1.007 1.478-1.701 2.562-2.083v0c0.921-0.324 1.687-0.353 2.299-0.087 0.618 0.264 1.068 0.797 1.35 1.598v0c0.209 0.593 0.197 1.132-0.036 1.619-0.235 0.48-0.649 0.824-1.242 1.033v0c-0.24 0.084-0.488 0.154-0.745 0.209v0l-0.342 0.025-1.287-3.652c-0.889 0.313-1.577 0.946-2.064 1.898v0c-0.225 0.469-0.382 0.918-0.472 1.346v0l3.406 9.668 1.71-0.156 0.137 0.388z" fill="#bb84e8" data-fill-palette-color="accent"></path><path d="M184.819 225.76c-1.047 0.62-2.068 0.969-3.064 1.046-0.996 0.077-1.898-0.095-2.708-0.517-0.81-0.422-1.465-1.056-1.966-1.901v0l-4.309-7.275-1.674 0.992-0.353-0.595 1.674-0.992-0.705-1.191c-0.849-1.432-0.557-2.573 0.875-3.421v0l1.666-0.987 1.978 3.339 3.34-1.978 0.352 0.595-3.339 1.979 4.309 7.274c0.866 1.461 1.611 2.372 2.237 2.732 0.62 0.364 1.223 0.371 1.809 0.024v0c0.575-0.341 0.912-0.913 1.011-1.718 0.101-0.814-0.132-1.698-0.697-2.653v0l0.595-0.353c0.699 1.179 0.945 2.265 0.74 3.257-0.208 0.986-0.799 1.767-1.771 2.343z" fill="#bb84e8" data-fill-palette-color="accent"></path><path d="M204.358 210.278c-2 1.866-3.951 2.808-5.853 2.828-1.902 0.019-3.647-0.822-5.235-2.524v0l-7.937-8.506-1.505 0.828-0.28-0.301 5.771-5.385 0.281 0.301-0.93 1.443 7.937 8.507c1.628 1.745 3.063 2.739 4.303 2.981 1.241 0.242 2.367-0.11 3.379-1.054v0c0.621-0.579 1.028-1.329 1.221-2.25 0.183-0.921 0.106-1.91-0.231-2.967-0.347-1.058-0.974-2.073-1.882-3.046v0l-7.656-8.206-2.189 0.904-0.28-0.301 3.85-3.592 0.28 0.301-1.052 2.12 7.656 8.206c1.022 1.095 1.708 2.238 2.06 3.428 0.351 1.19 0.378 2.327 0.081 3.409-0.303 1.087-0.899 2.046-1.789 2.876z" fill="#bb84e8" data-fill-palette-color="accent"></path><path d="M217.515 195.086l-0.346-0.223 0.549-1.627-14.898-9.617-1.257 1.171-0.346-0.223 3.982-6.169c1.704-2.64 3.331-4.285 4.879-4.932 1.552-0.654 3.041-0.52 4.468 0.401v0c0.966 0.624 1.582 1.383 1.848 2.279 0.267 0.905 0.288 1.853 0.062 2.845v0c-0.225 1.064-0.641 2.085-1.249 3.062v0l0.118 0.076c0.402-0.56 0.812-1.012 1.232-1.353v0c1.043-0.863 2.13-1.204 3.262-1.022v0l6.015 0.909 1.104-0.934 0.346 0.223-2.105 3.261c-0.82 1.27-2.08 1.773-3.781 1.511v0l-6.743-1.057-0.979 1.516 6.522 4.21 1.404-1.397 0.346 0.223zM213.095 184.808l0.598-0.927c0.703-1.09 0.915-2.163 0.634-3.22-0.283-1.066-1.062-2.011-2.337-2.833v0c-1.27-0.82-2.448-1.139-3.536-0.958-1.079 0.179-1.97 0.814-2.674 1.904v0l-0.598 0.926z" fill="#bb84e8" data-fill-palette-color="accent"></path><path d="M231.915 169.646l-0.387-0.137 0.159-1.71-16.713-5.927-0.953 1.428-0.388-0.137 2.642-7.449 0.387 0.137-0.159 1.71 16.845 5.974 1.991-5.615c-1.097-0.389-2.016-1.027-2.758-1.915v0c-0.316-0.389-0.544-0.796-0.684-1.221v0l0.278-0.785 4.698 1.666z" fill="#bb84e8" data-fill-palette-color="accent"></path><path d="M1.889 123.773c0-4.152 3.366-7.517 7.517-7.517 4.152 0 7.517 3.366 7.517 7.517 0 4.152-3.366 7.517-7.517 7.517-4.152 0-7.517-3.366-7.517-7.517z" fill="#bb84e8" data-fill-palette-color="accent"></path><path d="M226.567 123.773c0-4.152 3.366-7.517 7.517-7.517 4.152 0 7.517 3.366 7.517 7.517 0 4.152-3.366 7.517-7.517 7.517-4.152 0-7.517-3.366-7.517-7.517z" fill="#bb84e8" data-fill-palette-color="accent"></path></g><g id="text-1"></g></svg></g></svg></g></svg></g><defs></defs></svg><rect width="395.52" height="144.09853239756723" fill="none" stroke="none" visibility="hidden"></rect></g></svg></g></svg>